<svg width="110" height="112" viewBox="0 0 110 112" fill="none" xmlns="http://www.w3.org/2000/svg">
<g filter="url(#filter0_dd_1_11297)">
<rect x="7" width="96" height="96" rx="10" fill="#F8FAFD"/>
</g>
<path d="M53.7633 38.1675C53.3591 37.7632 52.7036 37.7632 52.2993 38.1675C51.895 38.5717 51.8951 39.2272 52.2993 39.6315C52.6307 39.9629 53.0315 40.1991 53.4688 40.3277V40.6681C53.4688 41.2399 53.9323 41.7033 54.504 41.7033C55.0757 41.7033 55.5392 41.2399 55.5392 40.6681V40.1223C55.7808 39.9946 56.0046 39.8302 56.2032 39.6314C57.2795 38.5552 57.2795 36.8038 56.2032 35.7275L54.2686 33.7929C54.1383 33.6626 54.0665 33.4893 54.0665 33.305C54.0665 33.1206 54.1383 32.9473 54.2687 32.817C54.399 32.6867 54.5723 32.6148 54.7567 32.6148C54.941 32.6148 55.1143 32.6866 55.2447 32.817C55.649 33.2213 56.3043 33.2214 56.7087 32.817C57.113 32.4128 57.113 31.7573 56.7087 31.353C56.3775 31.0217 55.9766 30.7855 55.5393 30.6568V30.3164C55.5393 29.7447 55.0757 29.2812 54.5041 29.2812C53.9325 29.2812 53.4689 29.7447 53.4689 30.3164V30.8622C53.2273 30.9899 53.0035 31.1543 52.8048 31.353C52.2834 31.8745 51.9962 32.5676 51.9962 33.305C51.9962 34.0424 52.2834 34.7356 52.8048 35.2569L54.7393 37.1914C54.8697 37.3217 54.9415 37.495 54.9415 37.6794C54.9415 37.8638 54.8697 38.0371 54.7393 38.1674C54.4704 38.4367 54.0325 38.4365 53.7633 38.1675Z" fill="#4582BA"/>
<path d="M54.5002 45.8441C60.2081 45.8441 64.8519 41.2003 64.8519 35.4923C64.8519 29.7843 60.2081 25.1406 54.5002 25.1406C48.7922 25.1406 44.1484 29.7844 44.1484 35.4923C44.1484 41.2004 48.7922 45.8441 54.5002 45.8441ZM54.5002 27.211C59.0666 27.211 62.7816 30.926 62.7816 35.4923C62.7816 40.0587 59.0665 43.7737 54.5002 43.7737C49.9338 43.7737 46.2188 40.0587 46.2188 35.4923C46.2188 30.926 49.9338 27.211 54.5002 27.211Z" fill="#4582BA"/>
<path d="M66.2609 57.4246H64.8534V45.6239C67.4131 43.0089 68.9941 39.4321 68.9941 35.4924C68.9941 27.5013 62.4928 21 54.5016 21C52.3844 21 50.3423 21.4474 48.4319 22.3297C47.9129 22.5694 47.6865 23.1845 47.9261 23.7035C48.1658 24.2225 48.781 24.4489 49.2999 24.2092C50.9364 23.4536 52.6865 23.0703 54.5017 23.0703C61.3512 23.0703 66.9238 28.6429 66.9238 35.4924C66.9238 42.3419 61.3513 47.9145 54.5017 47.9145C47.6522 47.9145 42.0797 42.3419 42.0797 35.4924C42.0797 33.6772 42.4628 31.9274 43.2183 30.2915C43.4579 29.7725 43.2315 29.1574 42.7125 28.9177C42.1935 28.6782 41.5783 28.9045 41.3387 29.4235C40.4566 31.3335 40.0093 33.3754 40.0093 35.4924C40.0093 39.4321 41.5902 43.0089 44.15 45.6239V57.4246H42.7446C41.577 57.4246 40.5679 58.1351 40.1739 59.2345C39.782 60.3282 40.0971 61.5077 40.9764 62.2514L52.6298 73.2586C53.1553 73.7529 53.829 74 54.5029 74C55.1773 74 55.8516 73.7524 56.377 73.2572L68.1337 62.1525C69.2313 61.1198 69.2841 59.3867 68.2515 58.289C67.7348 57.7396 67.0093 57.4246 66.2609 57.4246ZM66.7137 60.646L54.9562 71.7513C54.7022 71.9907 54.3034 71.9904 54.05 71.752L42.3751 60.7246C42.3578 60.7084 42.3401 60.6927 42.3217 60.6776C41.988 60.4032 42.0852 60.0382 42.1229 59.9329C42.1702 59.8013 42.3252 59.495 42.7446 59.495H45.1852C45.7569 59.495 46.2204 59.0315 46.2204 58.4598V47.3786C48.5695 49.0202 51.4249 49.9848 54.5017 49.9848C57.5786 49.9848 60.434 49.0203 62.7831 47.3787V58.4598C62.7831 59.0315 63.2467 59.495 63.8183 59.495H66.261C66.4434 59.495 66.6148 59.5704 66.7438 59.7076C66.9941 59.9738 66.9813 60.3941 66.7137 60.646Z" fill="#4582BA"/>
<path d="M44.9866 27.0109C45.2351 27.0109 45.4846 26.922 45.683 26.7416C46.1059 26.357 46.1372 25.7023 45.7526 25.2793C45.3681 24.8562 44.7133 24.8251 44.2904 25.2096L44.2898 25.2102C43.8669 25.5947 43.8359 26.2491 44.2205 26.6722C44.4246 26.8969 44.705 27.0109 44.9866 27.0109Z" fill="#4582BA"/>
<defs>
<filter id="filter0_dd_1_11297" x="0.0503192" y="0" width="109.899" height="111.637" filterUnits="userSpaceOnUse" color-interpolation-filters="sRGB">
<feFlood flood-opacity="0" result="BackgroundImageFix"/>
<feColorMatrix in="SourceAlpha" type="matrix" values="0 0 0 0 0 0 0 0 0 0 0 0 0 0 0 0 0 0 127 0" result="hardAlpha"/>
<feOffset dy="3.43489"/>
<feGaussianBlur stdDeviation="1.37396"/>
<feColorMatrix type="matrix" values="0 0 0 0 0.0235294 0 0 0 0 0.133333 0 0 0 0 0.517647 0 0 0 0.06 0"/>
<feBlend mode="normal" in2="BackgroundImageFix" result="effect1_dropShadow_1_11297"/>
<feColorMatrix in="SourceAlpha" type="matrix" values="0 0 0 0 0 0 0 0 0 0 0 0 0 0 0 0 0 0 127 0" result="hardAlpha"/>
<feOffset dy="8.6871"/>
<feGaussianBlur stdDeviation="3.47484"/>
<feColorMatrix type="matrix" values="0 0 0 0 0.0235294 0 0 0 0 0.133333 0 0 0 0 0.517647 0 0 0 0.0413989 0"/>
<feBlend mode="normal" in2="effect1_dropShadow_1_11297" result="effect2_dropShadow_1_11297"/>
<feBlend mode="normal" in="SourceGraphic" in2="effect2_dropShadow_1_11297" result="shape"/>
</filter>
</defs>
</svg>
