<svg width="110" height="112" viewBox="0 0 110 112" fill="none" xmlns="http://www.w3.org/2000/svg">
<g filter="url(#filter0_dd_1_11282)">
<rect x="7" width="96" height="96" rx="10" fill="#F8FAFD"/>
</g>
<path d="M74.7333 30.386C74.4562 30.0587 73.9663 30.0181 73.6391 30.2951C73.3119 30.5722 73.2712 31.062 73.5483 31.3892C77.3523 35.8822 79.4473 41.6038 79.4473 47.5C79.4473 61.256 68.256 72.4473 54.5 72.4473C40.744 72.4473 29.5527 61.256 29.5527 47.5C29.5527 33.744 40.744 22.5527 54.5 22.5527C60.6288 22.5527 66.5213 24.7961 71.0919 28.8697C71.412 29.155 71.9027 29.1267 72.188 28.8066C72.4734 28.4866 72.4451 27.9958 72.1251 27.7105C67.2696 23.3831 61.0103 21 54.5 21C47.4216 21 40.7669 23.7565 35.7616 28.7616C30.7565 33.7669 28 40.4216 28 47.5C28 54.5784 30.7565 61.2332 35.7616 66.2384C40.7669 71.2435 47.4216 74 54.5 74C61.5784 74 68.2332 71.2435 73.2384 66.2384C78.2436 61.2333 81 54.5784 81 47.5C81 41.2368 78.7744 35.159 74.7333 30.386Z" fill="#4582BA"/>
<path d="M41.321 29.243C38.4925 31.288 36.1451 34.0004 34.5321 37.0868C32.8654 40.2766 31.9844 43.8773 31.9844 47.5001C31.9844 53.514 34.3263 59.1678 38.5787 63.4204C42.8313 67.6728 48.4852 70.0147 54.499 70.0147C55.4348 70.0147 56.377 69.9567 57.2991 69.8423C57.7246 69.7894 58.0267 69.4016 57.9741 68.9762C57.9212 68.5506 57.5325 68.2497 57.1079 68.3012C56.249 68.4079 55.3713 68.462 54.4991 68.462C42.9407 68.462 33.5372 59.0585 33.5372 47.5001C33.5372 40.7919 36.7872 34.4372 42.2309 30.5013C42.5783 30.25 42.6563 29.7647 42.4051 29.4172C42.1539 29.0698 41.6687 28.9917 41.321 29.243Z" fill="#4582BA"/>
<path d="M60.0355 68.5406C60.1367 68.8766 60.445 69.0933 60.7786 69.0933C60.8527 69.0933 60.9282 69.0826 61.0028 69.0602C65.5378 67.6942 69.6145 64.849 72.4823 61.0487C75.4472 57.1197 77.0144 52.4343 77.0144 47.499C77.0144 41.4852 74.6725 35.8313 70.4201 31.5787C66.1675 27.3263 60.5137 24.9844 54.4998 24.9844C50.9909 24.9844 47.629 25.7694 44.5077 27.3177C44.1236 27.5082 43.9667 27.9741 44.1572 28.3582C44.3478 28.7422 44.8136 28.8992 45.1977 28.7087C48.1027 27.2677 51.2324 26.5371 54.4998 26.5371C66.0582 26.5371 75.4617 35.9406 75.4617 47.499C75.4617 56.6749 69.3318 64.9296 60.5549 67.5733C60.1444 67.697 59.9118 68.1301 60.0355 68.5406Z" fill="#4582BA"/>
<path d="M68.9986 41.6185C68.6093 41.4388 68.1481 41.609 67.9684 41.9982L63.1926 52.3497C63.0131 52.7391 63.183 53.2003 63.5724 53.3799C63.6778 53.4285 63.7883 53.4515 63.8972 53.4515C64.1907 53.4515 64.4717 53.2842 64.6026 53.0001L69.3784 42.6486C69.558 42.2594 69.388 41.7981 68.9986 41.6185Z" fill="#4582BA"/>
<path d="M62.4667 41.5469C61.1776 41.5469 60.1289 42.7091 60.1289 44.1378C60.1289 45.5664 61.1776 46.7287 62.4667 46.7287C63.7558 46.7287 64.8046 45.5664 64.8046 44.1378C64.8046 42.7091 63.7558 41.5469 62.4667 41.5469ZM62.4667 45.1759C62.0411 45.1759 61.6816 44.7005 61.6816 44.1378C61.6816 43.5751 62.0411 43.0996 62.4667 43.0996C62.8923 43.0996 63.2519 43.5751 63.2519 44.1378C63.2519 44.7005 62.8923 45.1759 62.4667 45.1759Z" fill="#4582BA"/>
<path d="M67.6875 50.8604C67.6875 52.289 68.7362 53.4513 70.0253 53.4513C71.3144 53.4513 72.3632 52.2889 72.3632 50.8604C72.3632 49.4319 71.3144 48.2695 70.0253 48.2695C68.7362 48.2695 67.6875 49.4318 67.6875 50.8604ZM70.0253 49.8222C70.4508 49.8222 70.8105 50.2976 70.8105 50.8603C70.8105 51.423 70.4508 51.8985 70.0253 51.8985C69.5997 51.8985 69.2402 51.423 69.2402 50.8603C69.2402 50.2976 69.5996 49.8222 70.0253 49.8222Z" fill="#4582BA"/>
<path d="M40.0397 53.4512C40.4685 53.4512 40.8161 53.1037 40.8161 52.6748V42.3232C40.8161 41.8945 40.4685 41.5469 40.0397 41.5469H37.8271C37.3984 41.5469 37.0508 41.8945 37.0508 42.3232C37.0508 42.752 37.3984 43.0996 37.8271 43.0996H39.2633V52.6748C39.2633 53.1037 39.6109 53.4512 40.0397 53.4512Z" fill="#4582BA"/>
<path d="M46.0763 53.4512C48.0903 53.4512 49.7287 51.8127 49.7287 49.7988V45.1993C49.7287 43.1853 48.0903 41.5469 46.0763 41.5469C44.0623 41.5469 42.4238 43.1853 42.4238 45.1993V49.7988C42.4239 51.8127 44.0624 53.4512 46.0763 53.4512ZM43.9767 45.1993C43.9767 44.0415 44.9186 43.0996 46.0764 43.0996C47.2342 43.0996 48.1761 44.0415 48.1761 45.1993V49.7988C48.1761 50.9567 47.2342 51.8984 46.0764 51.8984C44.9186 51.8984 43.9767 50.9565 43.9767 49.7988V45.1993Z" fill="#4582BA"/>
<path d="M58.6329 45.1993C58.6329 43.1853 56.9945 41.5469 54.9805 41.5469C52.9666 41.5469 51.3281 43.1853 51.3281 45.1993V49.7988C51.3281 51.8127 52.9666 53.4512 54.9805 53.4512C56.9945 53.4512 58.6329 51.8127 58.6329 49.7988V45.1993ZM57.0802 49.7988C57.0802 50.9567 56.1382 51.8984 54.9805 51.8984C53.8227 51.8984 52.8809 50.9565 52.8809 49.7988V45.1993C52.8809 44.0415 53.8227 43.0996 54.9805 43.0996C56.1383 43.0996 57.0802 44.0415 57.0802 45.1993V49.7988Z" fill="#4582BA"/>
<defs>
<filter id="filter0_dd_1_11282" x="0.0503192" y="0" width="109.899" height="111.637" filterUnits="userSpaceOnUse" color-interpolation-filters="sRGB">
<feFlood flood-opacity="0" result="BackgroundImageFix"/>
<feColorMatrix in="SourceAlpha" type="matrix" values="0 0 0 0 0 0 0 0 0 0 0 0 0 0 0 0 0 0 127 0" result="hardAlpha"/>
<feOffset dy="3.43489"/>
<feGaussianBlur stdDeviation="1.37396"/>
<feColorMatrix type="matrix" values="0 0 0 0 0.0235294 0 0 0 0 0.133333 0 0 0 0 0.517647 0 0 0 0.06 0"/>
<feBlend mode="normal" in2="BackgroundImageFix" result="effect1_dropShadow_1_11282"/>
<feColorMatrix in="SourceAlpha" type="matrix" values="0 0 0 0 0 0 0 0 0 0 0 0 0 0 0 0 0 0 127 0" result="hardAlpha"/>
<feOffset dy="8.6871"/>
<feGaussianBlur stdDeviation="3.47484"/>
<feColorMatrix type="matrix" values="0 0 0 0 0.0235294 0 0 0 0 0.133333 0 0 0 0 0.517647 0 0 0 0.0413989 0"/>
<feBlend mode="normal" in2="effect1_dropShadow_1_11282" result="effect2_dropShadow_1_11282"/>
<feBlend mode="normal" in="SourceGraphic" in2="effect2_dropShadow_1_11282" result="shape"/>
</filter>
</defs>
</svg>
