<svg width="514" height="592" viewBox="0 0 514 592" fill="none" xmlns="http://www.w3.org/2000/svg">
<path d="M499.26 64.6104V324.767C499.26 483.792 416.35 488.164 280.518 570.814L269.821 577.323C269.316 577.631 268.741 577.807 268.15 577.835C267.559 577.863 266.97 577.742 266.438 577.484L255.171 572.022C166.05 528.826 96.9008 510.639 56.7903 465.699C31.5677 437.442 17.8301 398.605 17.8301 336.321V64.4469C17.83 61.2305 18.9528 58.1151 21.0046 55.6385C23.0565 53.162 25.9085 51.4798 29.0682 50.8825L189.911 20.4908C228.929 13.1184 268.956 12.8372 308.073 19.6607L473.935 48.5908L487.829 51.0139C491.03 51.5714 493.931 53.2408 496.022 55.728C498.113 58.2152 499.26 61.3607 499.26 64.6104Z" fill="url(#paint0_linear_1_11491)"/>
<path d="M468.977 94.1843V321.506C468.977 460.461 396.53 464.282 277.842 536.501L268.495 542.188C268.054 542.457 267.552 542.611 267.035 542.635C266.519 542.66 266.005 542.555 265.54 542.329L255.693 537.559C175.68 498.773 114.086 483.064 79.5164 441.362C59.2833 416.957 48.3047 383.649 48.3047 331.603V94.04C48.3049 91.2297 49.2864 88.5076 51.0797 86.3441C52.873 84.1806 55.3654 82.7114 58.1265 82.1904L198.669 55.6322C232.762 49.1906 267.737 48.9452 301.918 54.9078L458.989 82.3026C459.181 82.3347 459.373 82.3731 459.562 82.418C462.234 83.0183 464.622 84.5105 466.334 86.6491C468.045 88.7876 468.977 91.4451 468.977 94.1843Z" fill="#ADC9EA"/>
<path d="M266.084 184.886L272.264 183.718C273.763 183.435 275.301 183.424 276.804 183.686L283.711 184.891C283.834 184.912 283.945 184.976 284.025 185.072C284.106 185.167 284.15 185.288 284.15 185.413V195.409C284.15 201.519 280.964 201.687 275.745 204.864L275.334 205.114C275.315 205.126 275.293 205.133 275.27 205.134C275.247 205.135 275.225 205.13 275.204 205.12L274.771 204.91C269.196 202.207 265.652 202.053 265.652 195.854V185.408C265.652 185.285 265.695 185.164 265.774 185.069C265.853 184.973 265.963 184.909 266.084 184.886Z" fill="#F8FCFF"/>
<path d="M296.238 201.78L300.574 200.96C301.626 200.762 302.705 200.754 303.759 200.938L308.605 201.783C308.691 201.798 308.77 201.843 308.826 201.91C308.882 201.978 308.913 202.062 308.913 202.15V209.163C308.913 213.45 306.678 213.568 303.017 215.796L302.729 215.971C302.715 215.98 302.7 215.984 302.684 215.985C302.668 215.986 302.652 215.983 302.637 215.976L302.334 215.828C298.421 213.932 295.936 213.824 295.936 209.474V202.145C295.936 202.059 295.966 201.975 296.021 201.908C296.076 201.841 296.153 201.796 296.238 201.78Z" fill="#F8FCFF"/>
<path d="M272.847 217.226L275.319 216.759C275.918 216.646 276.533 216.642 277.135 216.746L279.897 217.227C279.946 217.236 279.991 217.261 280.023 217.3C280.055 217.338 280.073 217.386 280.073 217.436V221.434C280.073 223.879 278.799 223.946 276.711 225.217L276.546 225.317C276.539 225.321 276.53 225.324 276.521 225.324C276.512 225.325 276.503 225.323 276.495 225.319L276.322 225.235C274.091 224.154 272.674 224.092 272.674 221.613V217.435C272.674 217.385 272.691 217.337 272.723 217.299C272.754 217.261 272.798 217.235 272.847 217.226Z" fill="#F8FCFF"/>
<path d="M347.746 120.436C347.28 130.875 344.743 141.117 340.28 150.565C335.818 160.014 329.52 168.479 321.754 175.469L315.031 181.52L308.02 175.604C300.499 169.259 294.235 161.559 289.552 152.904C286.878 155.236 284.333 157.712 281.929 160.321C288.004 171.095 295.956 180.695 305.408 188.671L314.659 196.479L323.529 188.495C343.947 170.114 356.256 144.393 357.763 116.958C354.286 118.096 350.947 119.255 347.746 120.436ZM353.495 96.9705C327.307 88.5216 299.127 88.5216 272.94 96.9705L268.909 98.2718C274.36 107.525 278.138 111.548 280.051 113.202C280.49 113.61 280.973 113.967 281.493 114.266C291.196 108.054 305.174 104.038 320.79 101.522H320.793C332.326 99.6596 344.753 98.6147 357.007 98.1051L353.495 96.9705ZM341.635 105.221H341.631C324.058 107.557 302.159 113.134 281.493 125.804C281.216 125.683 280.947 125.544 280.689 125.388C278.788 124.292 273.792 120.721 268.537 111.272C268.822 126.105 272.283 140.705 278.686 154.087C281.029 151.269 283.58 148.631 286.319 146.196C296.195 137.266 315.089 123.836 347.826 112.538C351.052 111.423 354.416 110.33 357.92 109.259V103.807C353.145 103.999 347.643 104.419 341.635 105.221Z" fill="#F8FCFF"/>
<path d="M376.666 104.169C370.014 105.772 363.765 107.468 357.92 109.259C354.416 110.328 351.052 111.421 347.826 112.538C315.089 123.836 296.195 137.266 286.319 146.196C283.58 148.631 281.029 151.269 278.686 154.087C272.283 140.705 268.822 126.105 268.537 111.272C273.792 120.721 278.788 124.292 280.689 125.388C280.947 125.544 281.216 125.683 281.493 125.804C302.159 113.134 324.058 107.557 341.632 105.221H341.635C347.643 104.419 353.145 103.999 357.92 103.807C369.392 103.339 376.666 104.169 376.666 104.169Z" fill="#F8FCFF"/>
<path d="M468.976 94.1842V321.506C468.976 460.461 396.529 464.282 277.841 536.501L268.494 542.188C268.053 542.457 267.551 542.611 267.035 542.635C266.518 542.66 266.004 542.555 265.539 542.329L255.692 537.559C175.679 498.773 114.086 483.064 79.5156 441.362C93.0386 426.855 112.762 412.675 140.196 399.848C248.248 349.334 405.088 153.384 459.562 82.418C462.233 83.0183 464.622 84.5105 466.333 86.649C468.044 88.7876 468.976 91.4451 468.976 94.1842Z" fill="#97B5D3"/>
<path d="M331.476 60.4034C326.163 59.4021 320.777 58.6467 315.405 57.9335L311.367 57.4345L307.325 56.9745L303.281 56.5437L299.233 56.155C296.532 55.9171 293.831 55.6796 291.125 55.4902C288.424 55.2726 285.718 55.1113 283.013 54.9376C277.601 54.6244 272.187 54.4 266.769 54.2645C255.936 53.9607 245.098 54.0863 234.278 54.5091L232.249 54.5867L230.222 54.6927L226.167 54.9053C223.465 55.0623 220.765 55.27 218.065 55.4501L209.978 56.1553C207.288 56.4486 204.592 56.6854 201.905 56.995L197.875 57.4758C196.533 57.6409 195.188 57.7845 193.85 57.9829L189.831 58.5432C188.492 58.73 187.151 58.9082 185.818 59.1329L181.812 59.7739C180.477 59.9855 179.141 60.1945 177.806 60.447L173.804 61.1727L171.802 61.5352C171.482 61.5955 171.099 61.6589 170.777 61.7118L169.772 61.8785C159.055 63.6619 148.342 65.4864 137.635 67.352C126.927 69.2176 116.232 71.1312 105.549 73.0928C100.209 74.0787 94.8724 75.086 89.541 76.1147C84.21 77.1403 78.8854 78.1916 73.5801 79.3026C70.928 79.8581 68.2832 80.4343 65.6454 81.0311C63.0126 81.634 60.3837 82.26 57.8133 82.9683C56.537 83.3251 55.2498 83.7027 54.0993 84.1405C53.8222 84.2498 53.5395 84.3649 53.3255 84.4735L53.1816 84.5498C53.1345 84.5745 53.1207 84.5889 53.0854 84.6062C53.0765 84.612 53.0854 84.6084 53.0854 84.6081C53.0854 84.6078 53.0806 84.6081 53.121 84.5761C53.1367 84.5665 53.2011 84.4844 53.1659 84.5245L53.08 84.6238L51.7341 86.1684C50.9398 87.0053 50.3055 87.9807 49.8627 89.0464C49.4614 90.1955 49.1912 91.3863 49.0574 92.5961C48.7341 95.1564 48.6376 97.8526 48.5646 100.536C48.5415 101.885 48.5117 103.232 48.5091 104.586L48.4973 106.615L48.5078 108.654L48.5771 124.964L48.7953 190.205L48.8664 222.826L48.8831 255.448C48.8831 277.196 48.9097 298.944 48.8372 320.693C48.8384 320.834 48.7837 320.969 48.6851 321.069C48.5865 321.17 48.4521 321.227 48.3116 321.228C48.171 321.229 48.0357 321.174 47.9355 321.076C47.8353 320.977 47.7784 320.843 47.7772 320.702C47.3834 298.955 47.087 277.207 46.7668 255.46L46.3015 222.837L45.8891 190.213L45.1428 124.965L44.971 108.653L44.9512 106.614L44.9534 104.566C44.9499 103.201 44.9736 101.83 44.9912 100.46C45.0553 97.7116 45.1329 94.9635 45.4767 92.1266C45.6395 90.6317 45.9743 89.1608 46.4746 87.7428C46.6383 87.3729 46.772 86.9925 46.9697 86.6348C47.1533 86.2731 47.3584 85.9228 47.584 85.5857L47.9195 85.0895L48.2694 84.6367C48.5046 84.3232 48.7357 84.0681 48.9686 83.7882L50.2947 82.2542L50.3751 82.1603C50.3946 82.1356 50.5234 81.9975 50.5994 81.927C50.6712 81.856 50.7479 81.7901 50.8288 81.7299C50.8952 81.6789 50.9705 81.6212 51.032 81.5795C51.1429 81.5087 51.2688 81.4257 51.371 81.3696C51.4733 81.3135 51.58 81.2532 51.6764 81.2055C52.0687 81.0061 52.417 80.8664 52.7708 80.7247C54.1593 80.1907 55.4843 79.8029 56.8225 79.4202C59.4899 78.6724 62.1481 78.0279 64.811 77.4048C67.4739 76.7817 70.1368 76.1977 72.8023 75.6256C83.463 73.3438 94.1497 71.2899 104.847 69.2979C115.545 67.3058 126.251 65.385 136.964 63.5019C147.677 61.6189 158.395 59.7755 169.123 57.9733L171.113 57.6361L173.125 57.2784L177.145 56.562C178.483 56.3127 179.833 56.1056 181.183 55.8963L185.231 55.263C186.579 55.0405 187.933 54.8649 189.286 54.6806L193.345 54.1286C194.697 53.9328 196.055 53.7921 197.411 53.6302L201.48 53.1565C223.199 50.8516 245.061 50.1964 266.879 51.1965C277.774 51.718 288.652 52.5748 299.473 53.9014C304.884 54.5542 310.279 55.3241 315.658 56.211C321.036 57.1047 326.385 58.1063 331.712 59.348C331.848 59.3818 331.965 59.4669 332.039 59.5854C332.114 59.7039 332.139 59.8466 332.111 59.9834C332.082 60.1203 332.001 60.2408 331.886 60.3195C331.77 60.3982 331.629 60.4291 331.491 60.4057L331.476 60.4034Z" fill="#F9F9F9"/>
<path d="M455.958 363.528C448.148 374.261 372.192 386.948 262.784 386.948C153.375 386.948 67.9476 373.249 59.7506 362.809C46.2276 345.586 148.445 334.561 257.854 334.561C367.264 334.561 469.411 345.039 455.958 363.528Z" fill="#092049"/>
<path d="M263.739 372.932C350.903 372.932 421.563 364.358 421.563 353.782C421.563 343.206 350.903 334.633 263.739 334.633C176.575 334.633 105.914 343.206 105.914 353.782C105.914 364.358 176.575 372.932 263.739 372.932Z" fill="#283476"/>
<path d="M280.178 334.712C281.716 337.372 282.809 339.182 282.809 339.182C282.809 339.182 279.41 339.855 274 340.932L273.96 340.94L264.897 343.064L269.326 347.598C264.463 349.867 258.812 344.97 258.812 344.97L264.407 351.496L255.043 352.324L254.938 352.332L244.999 353.21C244.725 353.029 244.572 352.916 244.572 352.916C241.56 352.646 238.137 349.351 238.137 349.351C237.196 349.553 236.194 349.263 234.943 348.816C233.357 348.186 231.724 347.678 230.06 347.296C228.194 346.911 226.633 347.581 224.851 348.583L213.943 340.854C212.233 346.117 208.87 355.732 207.021 356.106C204.467 356.617 198.715 361.023 191.474 357.402C191.216 357.275 190.969 357.127 190.735 356.959C196.201 356.911 200.372 356.661 201.784 356.106L202.081 355.865L205.617 352.98L205.895 352.522L207.741 349.488C208.131 348.334 207.978 346.483 208.493 345.38L208.766 340.806L208.911 338.412L208.975 337.338L206.796 335.793L205.911 335.395H205.907C203.647 335.471 201.404 335.55 199.178 335.632C167.731 336.811 139.635 338.919 117.05 341.687C81.6255 346.032 59.7539 352.003 59.7539 358.597C59.7539 371.869 148.45 382.632 257.857 382.632C367.265 382.632 455.959 371.869 455.959 358.597C455.958 346.238 379.079 336.056 280.178 334.712Z" fill="#283476"/>
<path d="M319.386 345.681L254.874 367.674C247.758 370.099 240.013 371.972 238.238 371.653L189.363 362.854C188.292 362.662 193.645 361.113 200.824 359.506L272.495 343.465C275.688 342.751 279.025 342.221 280.034 342.263L321.583 343.984C322.943 344.039 322.01 344.786 319.386 345.681Z" fill="#B8ECFF"/>
<path d="M254.874 367.672C247.758 370.098 240.012 371.971 238.238 371.651L189.363 362.853" fill="#B8ECFF"/>
<path d="M196.118 362.853L235.946 369.493C235.946 369.493 241.731 370.377 248.886 367.638C257.541 364.324 319.913 343.917 319.913 343.917L321.756 343.996C321.756 343.996 322.821 344.042 321.66 344.727C320.499 345.412 303.097 351.234 303.097 351.234L251.333 368.82C251.333 368.82 240.883 372.466 237.383 371.687C233.324 370.785 190.363 363.033 190.363 363.033C190.363 363.033 188.131 362.858 189.95 362.372C191.768 361.886 196.118 362.853 196.118 362.853Z" fill="#7AB5C4"/>
<path d="M239.676 152.437C227.352 135.797 196.851 132.409 178.674 165.689C160.497 198.969 166.965 243.035 166.35 248.893C165.734 254.751 179.804 250.944 179.804 250.944L189.687 247.794C190.67 247.483 191.516 246.844 192.084 245.984C192.638 245.314 192.417 245.378 192.582 244.5L193.283 243.345C192.688 240.114 193.283 241.534 193.283 230.672L191.707 218.662C191.44 216.636 190.916 214.653 190.146 212.76L187.853 207.135C187.493 206.539 186.986 206.045 186.379 205.702C185.773 205.359 185.089 205.178 184.392 205.176C183.375 205.172 180.897 205.382 180.213 204.311C177.236 199.636 172.1 186.388 181.086 182.891C189.424 179.654 184.32 193.01 187.763 192.652C187.763 192.652 193.358 190.548 195.003 185C196.648 179.452 201.781 171.852 222.934 176.987C236.606 180.306 239.558 175.047 239.936 170.907C240.206 171.016 240.463 171.125 240.717 171.233C240.801 173.358 240.419 176.21 238.866 179.755C238.797 179.915 238.762 180.089 238.763 180.264C238.764 180.438 238.802 180.611 238.874 180.771C238.946 180.93 239.05 181.073 239.181 181.19C239.311 181.306 239.464 181.394 239.631 181.448C240.405 181.701 241.203 181.877 242.012 181.971L242.6 181.994C242.827 189.032 244.762 194.269 241.598 210.951C240.499 216.741 235.786 223.444 227.672 232.483C225.101 235.348 222.242 236.105 222.242 236.105C222.242 236.105 223.713 242.553 224.052 246.967C224.553 253.49 237.929 251.359 237.929 251.359L240.908 236.361C243.886 221.364 246.078 182.642 246.078 182.642C246.067 182.363 246.027 182.085 245.959 181.814C246.298 181.647 246.596 181.407 246.831 181.11C247.065 180.813 247.23 180.467 247.313 180.098C248.24 175.901 249.177 165.267 239.676 152.437Z" fill="#182B66"/>
<path d="M280.178 334.713C276.851 334.664 273.501 334.628 270.126 334.604C266.067 334.576 261.976 334.561 257.853 334.56H256.59C255.926 334.56 255.266 334.56 254.607 334.564C249.116 334.576 243.685 334.613 238.312 334.677C237.508 334.685 236.707 334.697 235.907 334.709C233.856 334.733 231.814 334.764 229.781 334.801C228.956 334.813 228.135 334.828 227.315 334.845L225.38 334.882L222.528 334.942C217.786 335.047 213.104 335.171 208.482 335.316H208.478C207.621 335.34 206.761 335.369 205.908 335.397L206.793 335.795L208.972 337.34L208.908 338.414L208.763 340.808L208.49 345.382C207.975 346.485 208.128 348.335 207.737 349.49L205.891 352.523L205.614 352.982L202.078 355.867L201.781 356.108C200.369 356.663 196.197 356.913 190.731 356.961C178.306 357.082 159.196 356.185 150.637 355.597C139.909 354.865 122.42 346.01 117.046 341.689C116.245 341.048 115.715 340.506 115.514 340.108C113.973 337.026 113.973 322.543 124.142 303.746C134.31 284.949 155.771 252.796 158.238 250.74C160.097 249.191 178.426 245.695 187.327 244.07C190.232 243.539 192.13 243.209 192.13 243.209C197.11 242.308 214.482 245.204 226.963 247.9C233.39 249.288 238.523 250.624 239.987 251.356C244.299 253.516 252.927 263.377 256.929 267.69C260.932 272.003 269.253 309.6 270.452 315.148C271.276 318.958 276.799 328.879 280.178 334.713Z" fill="#3084E0"/>
<path d="M223.394 260.054C216.46 264.85 204.316 260.601 196.099 257.314C189.961 254.86 187.95 247.59 187.326 244.07C190.23 243.539 192.129 243.209 192.129 243.209C197.109 242.308 214.481 245.204 226.962 247.9C227.843 251.754 227.775 257.029 223.394 260.054Z" fill="#024799"/>
<path d="M269.348 333.603C266.553 329.949 263.505 325.35 261.96 321.001C258.674 311.756 251.792 278.681 249.378 274.368C248.679 273.114 247.1 270.939 245.212 268.487C245.119 268.364 244.982 268.28 244.83 268.253C244.678 268.226 244.521 268.256 244.391 268.339C244.26 268.421 244.165 268.549 244.124 268.698C244.083 268.848 244.1 269.006 244.17 269.144C246.778 274.192 248.538 279.635 249.377 285.255C251.642 301.324 249.213 326.191 253.701 333.441C244.687 332.966 206.33 330.713 201.986 326.55C197.055 321.823 175.696 315.249 179.598 307.033C182.518 300.882 179.067 290.124 177.148 285.103C177.104 284.987 177.019 284.89 176.911 284.83C176.802 284.77 176.675 284.75 176.553 284.773C176.431 284.797 176.321 284.862 176.243 284.959C176.164 285.055 176.122 285.176 176.123 285.3C176.151 293.004 174.442 299.422 172.615 306.003C172.591 306.092 172.563 306.18 172.539 306.269C170.886 311.958 165.56 315.687 159.643 315.567C148.023 315.333 134.937 322.519 130.039 325.496C129.968 325.534 129.914 325.598 129.888 325.675C129.862 325.752 129.866 325.835 129.899 325.909C129.932 325.983 129.992 326.041 130.067 326.073C130.141 326.105 130.225 326.107 130.301 326.079C131.431 325.733 133.08 325.226 135.437 324.494C141.394 322.647 166.043 319.566 171.175 320.797C175.17 321.754 194.481 330.288 202.879 334.041C201.56 334.349 200.306 334.889 199.175 335.634C198.355 336.172 197.594 336.794 196.902 337.489C193.415 340.977 184.896 352.854 190.732 356.961C196.198 356.913 200.369 356.664 201.781 356.108L202.079 355.867L205.615 352.982L205.892 352.524L207.738 349.49C208.128 348.336 207.976 346.485 208.491 345.383L208.764 340.808L208.909 338.414L208.973 337.34L206.794 335.795C206.794 335.795 206.48 335.654 205.909 335.397C206.761 335.369 207.622 335.341 208.479 335.317H208.483C213.105 335.167 217.787 335.042 222.529 334.942L225.381 334.882L227.316 334.846C228.136 334.83 228.958 334.815 229.782 334.802C231.813 334.765 233.855 334.735 235.908 334.709C236.709 334.697 237.51 334.685 238.313 334.677C243.683 334.613 249.114 334.575 254.607 334.564C255.267 334.56 255.927 334.56 256.59 334.56H257.853C261.546 334.56 265.213 334.572 268.855 334.596C268.97 334.597 269.084 334.566 269.183 334.505C269.281 334.445 269.361 334.358 269.412 334.254C269.464 334.151 269.485 334.035 269.474 333.92C269.463 333.805 269.419 333.695 269.348 333.603Z" fill="#234499"/>
<path d="M180.693 245.442L167.313 248.393C166.203 248.645 165.065 248.854 163.99 249.158L160.687 250.067C160.417 250.144 160.124 250.218 159.873 250.296C159.617 250.379 159.368 250.483 159.129 250.608C158.651 250.856 158.22 251.186 157.855 251.582C157.132 252.422 156.44 253.345 155.765 254.255C154.414 256.089 153.116 257.965 151.833 259.851C150.549 261.736 149.296 263.637 148.065 265.561L140.637 277.073L136.923 282.829L135.07 285.709L133.34 288.666L126.422 300.493C125.216 302.422 124.111 304.414 123.113 306.459C122.107 308.502 121.17 310.578 120.302 312.685C118.577 316.899 117.051 321.212 116.064 325.655C116.051 325.709 116.017 325.755 115.97 325.784C115.924 325.813 115.867 325.823 115.813 325.811C115.76 325.8 115.712 325.767 115.682 325.721C115.651 325.675 115.64 325.619 115.65 325.565C116.611 321.076 118.112 316.731 119.812 312.483C120.664 310.359 121.591 308.26 122.604 306.206C123.607 304.144 124.716 302.135 125.929 300.189L132.827 288.348L134.551 285.388L136.401 282.504L140.106 276.739C145.086 269.083 149.832 261.258 155.285 253.896C155.975 252.977 156.656 252.072 157.427 251.185C157.84 250.74 158.326 250.371 158.866 250.095C159.135 249.958 159.415 249.844 159.703 249.754C159.999 249.667 160.26 249.605 160.54 249.528L163.852 248.655C164.415 248.511 164.977 248.371 165.535 248.265L167.212 247.919L180.639 245.183C180.673 245.175 180.709 245.182 180.738 245.201C180.767 245.22 180.787 245.25 180.794 245.284C180.802 245.318 180.795 245.353 180.776 245.382C180.757 245.411 180.727 245.432 180.693 245.439L180.693 245.442Z" fill="#82BCF4"/>
<path d="M218.791 140.618C216.71 140.479 214.621 140.57 212.561 140.89C210.504 141.19 208.476 141.66 206.498 142.296C202.547 143.576 198.805 145.427 195.391 147.792C191.981 150.162 188.926 153.007 186.319 156.241C183.684 159.477 181.341 162.94 179.318 166.591C177.284 170.245 175.486 174.026 173.934 177.91C172.367 181.789 171.083 185.778 170.094 189.844C168.187 198.025 166.894 206.337 166.224 214.71V214.713C166.221 214.751 166.203 214.785 166.175 214.809C166.147 214.833 166.11 214.846 166.073 214.843C166.036 214.841 166.001 214.824 165.976 214.797C165.951 214.769 165.938 214.733 165.94 214.696C166.118 210.483 166.529 206.289 167.073 202.109C167.606 197.928 168.328 193.774 169.241 189.647C170.181 185.521 171.419 181.468 172.946 177.522C174.455 173.566 176.244 169.722 178.298 166.02C180.339 162.298 182.707 158.765 185.372 155.461C188.06 152.177 191.127 149.143 194.673 146.737C198.194 144.31 202.088 142.474 206.201 141.303C208.252 140.723 210.353 140.338 212.477 140.154C214.596 139.95 216.733 140.022 218.833 140.371C218.865 140.376 218.894 140.393 218.913 140.419C218.932 140.445 218.941 140.478 218.936 140.51C218.932 140.542 218.916 140.571 218.891 140.591C218.865 140.612 218.833 140.621 218.801 140.618L218.791 140.618Z" fill="#9CADE2"/>
<path d="M237.863 220.883C233.209 231.702 223.346 235.677 223.346 235.677C223.346 235.677 224.444 249.235 224.034 253.89C223.624 258.545 220.798 260.882 208.423 258.685C197.841 256.806 192.809 251.033 192.085 245.984C192.616 245.191 193.284 245.155 192.801 243.228C192.766 243.098 192.747 242.964 192.745 242.829C193.208 238.794 193.388 234.732 193.284 230.671L191.707 218.662C191.441 216.636 190.916 214.652 190.146 212.76L187.854 207.135C187.494 206.539 186.986 206.045 186.38 205.702C185.774 205.359 185.089 205.178 184.393 205.176C183.375 205.172 180.897 205.381 180.213 204.311C177.237 199.636 172.1 186.387 181.086 182.891C189.424 179.654 184.32 193.01 187.763 192.652C187.763 192.652 193.358 190.547 195.003 185C196.649 179.452 201.781 171.851 222.934 176.987C236.606 180.306 239.559 175.047 239.937 170.907C240.206 171.016 240.464 171.125 240.717 171.233C240.802 173.358 240.42 176.21 238.867 179.755C238.797 179.915 238.762 180.088 238.763 180.263C238.765 180.438 238.802 180.611 238.874 180.77C238.946 180.93 239.051 181.073 239.181 181.189C239.311 181.306 239.465 181.394 239.631 181.448C240.405 181.701 241.203 181.876 242.012 181.971L242.761 181.999C242.772 182.128 242.781 182.265 242.793 182.398C244.572 204.175 242.516 210.065 237.863 220.883Z" fill="#FFDFAA"/>
<path d="M237.863 220.883C233.209 231.702 223.346 235.677 223.346 235.677C223.346 235.677 224.444 249.235 224.034 253.89C223.624 258.545 220.798 260.882 208.424 258.685C197.841 256.807 192.809 251.033 192.085 245.984C192.616 245.192 193.284 245.155 192.801 243.228C192.766 243.098 192.747 242.964 192.745 242.829C193.208 238.794 193.388 234.732 193.284 230.671L191.707 218.662C191.441 216.636 190.916 214.652 190.146 212.76L187.854 207.135C187.494 206.539 186.986 206.045 186.38 205.702C185.774 205.359 185.089 205.178 184.393 205.176C183.375 205.172 180.897 205.381 180.213 204.311C177.237 199.636 172.1 186.387 181.086 182.891C189.424 179.654 184.32 193.01 187.763 192.652C188.613 192.3 189.422 191.858 190.177 191.332C191.922 191.602 196.439 183.253 201.986 179.5C207.533 175.746 220.678 177.81 227.847 179.5C234.832 181.149 238.071 177.588 238.232 177.408C233.908 183.438 242.93 184.155 242.93 184.155V184.146C244.46 204.501 242.388 210.359 237.863 220.883Z" fill="#FFDFAA"/>
<path d="M255.133 205.53L255.145 205.569C255.139 205.545 255.131 205.521 255.121 205.498L255.133 205.53Z" fill="#FFDFAA"/>
<path d="M267.166 348.616C266.814 348.879 266.437 349.104 266.039 349.29C261.177 351.559 255.525 346.661 255.525 346.661L261.12 353.187L262.922 355.287C260.046 358.574 257.991 356.659 257.991 356.659C255.38 357.725 252.46 354.885 251.724 354.108C251.672 354.265 251.615 354.429 251.555 354.607C249.785 359.813 243.418 356.031 241.713 354.901C241.439 354.72 241.286 354.607 241.286 354.607C238.274 354.337 234.85 351.042 234.85 351.042C234.106 351.2 233.326 351.055 232.413 350.765H232.409C230.969 350.302 229.204 349.494 226.774 348.987C224.907 348.6 223.347 349.272 221.565 350.274C219.546 351.405 217.245 352.961 213.902 353.899C208.118 355.516 208.452 353.316 205.894 352.523C205.646 352.445 205.394 352.386 205.137 352.346C201.714 351.795 201.505 353.851 199.864 351.799C198.223 349.747 202.603 341.387 202.603 341.387C202.603 341.387 202.909 339.568 205.689 339.029C206.26 338.921 206.867 338.8 207.507 338.679C207.961 338.595 208.428 338.502 208.91 338.414C214.731 337.311 222.28 335.956 226.086 335.565C232.796 334.881 235.671 335.428 237.453 335.565C239.235 335.702 253.201 339.399 255.115 339.946C255.86 340.16 257.835 341.512 259.978 343.085C263.365 345.571 267.166 348.616 267.166 348.616Z" fill="#FFDFAA"/>
<path d="M223.394 235.893C219.171 240.085 219.702 243.151 217.011 245.142C207.401 252.251 191.545 217.443 191.545 217.443L191.533 217.394C191.36 216.448 191.128 215.515 190.837 214.598L190.826 214.558L190.813 214.526C190.629 213.931 190.415 213.34 190.178 212.76L187.864 207.165C187.584 206.673 187.2 206.248 186.739 205.919C186.278 205.59 185.752 205.366 185.195 205.261C185.195 205.261 187.539 201.845 200.479 222.902C211.374 240.633 220.703 237.209 223.378 235.684C223.382 235.708 223.386 235.78 223.394 235.893Z" fill="url(#paint1_linear_1_11491)"/>
<path d="M242.719 184.134C242.719 184.134 233.909 183.439 238.233 177.409C238.073 177.589 234.834 181.15 227.847 179.501C220.68 177.811 207.535 175.751 201.987 179.501C196.44 183.251 194.772 188.852 190.178 191.333C191.903 190.154 194.079 188.122 195.004 185C196.645 179.452 201.782 171.852 222.935 176.987C236.607 180.306 239.56 175.048 239.938 170.908C240.207 171.017 240.465 171.126 240.718 171.234C240.803 173.359 240.421 176.211 238.868 179.755C238.798 179.916 238.763 180.089 238.764 180.264C238.765 180.439 238.803 180.612 238.875 180.771C238.947 180.931 239.052 181.074 239.182 181.19C239.312 181.307 239.466 181.395 239.632 181.449C240.406 181.702 241.204 181.877 242.013 181.972L242.601 181.994C242.613 182.123 242.625 182.443 242.637 182.574C242.686 183.169 242.679 183.561 242.719 184.134Z" fill="#E07B58"/>
<path d="M184.528 197.224C184.528 197.224 179.393 194.964 183.244 192.601C183.244 192.601 185.401 186.618 183.86 185.437C182.32 184.255 179.675 185.257 178.289 187.106" stroke="url(#paint2_linear_1_11491)" stroke-miterlimit="10" stroke-linecap="round"/>
<path d="M251.149 355.098C249.205 353.603 247.254 352.115 245.285 350.652L243.802 349.565C243.317 349.201 242.813 348.864 242.293 348.554C241.722 348.273 241.222 347.931 240.698 347.606L239.146 346.617C238.628 346.29 238.109 345.964 237.578 345.66C237.316 345.506 237.047 345.367 236.77 345.242C236.628 345.191 236.483 345.147 236.337 345.111L235.895 344.977C234.723 344.609 233.561 344.215 232.402 343.808C231.244 343.4 230.093 342.974 228.952 342.522C228.382 342.296 227.816 342.058 227.254 341.808C226.689 341.567 226.146 341.276 225.632 340.939C225.632 340.938 225.631 340.937 225.63 340.937C225.63 340.936 225.629 340.935 225.629 340.933C225.629 340.932 225.629 340.931 225.629 340.93C225.629 340.929 225.63 340.928 225.631 340.927C225.632 340.926 225.634 340.924 225.636 340.924C225.638 340.924 225.641 340.924 225.642 340.925C226.158 341.257 226.702 341.541 227.269 341.776C227.831 342.02 228.399 342.252 228.971 342.471C230.115 342.913 231.271 343.324 232.432 343.721C233.593 344.119 234.759 344.498 235.932 344.853L236.372 344.982C236.524 345.018 236.673 345.062 236.821 345.113C237.105 345.237 237.381 345.376 237.65 345.53C238.188 345.831 238.711 346.151 239.234 346.474L240.796 347.447C241.316 347.764 241.839 348.108 242.372 348.364C242.649 348.511 242.916 348.676 243.173 348.856C243.429 349.028 243.682 349.203 243.931 349.381L245.429 350.454C247.414 351.899 249.385 353.362 251.342 354.843C251.359 354.856 251.373 354.872 251.384 354.89C251.394 354.908 251.401 354.928 251.404 354.949C251.407 354.97 251.406 354.991 251.401 355.011C251.396 355.032 251.386 355.051 251.374 355.068C251.361 355.084 251.345 355.099 251.327 355.109C251.309 355.12 251.289 355.127 251.268 355.13C251.247 355.133 251.226 355.132 251.206 355.127C251.186 355.122 251.166 355.112 251.15 355.1L251.149 355.098Z" fill="url(#paint3_linear_1_11491)"/>
<path d="M260.342 357.113L254.539 351.068L251.638 348.046L250.187 346.535C249.738 346.01 249.23 345.539 248.674 345.13C248.388 344.941 248.083 344.785 247.763 344.662C247.438 344.548 247.106 344.451 246.77 344.374L244.743 343.847L240.688 342.793L232.581 340.685C232.574 340.684 232.568 340.681 232.562 340.677C232.557 340.673 232.552 340.668 232.549 340.662C232.545 340.656 232.543 340.65 232.542 340.643C232.541 340.637 232.541 340.63 232.543 340.623C232.544 340.616 232.547 340.61 232.551 340.605C232.556 340.599 232.561 340.595 232.567 340.592C232.573 340.588 232.579 340.586 232.586 340.585C232.593 340.585 232.599 340.585 232.606 340.587L240.728 342.642L244.79 343.668L246.82 344.18C247.164 344.257 247.504 344.353 247.837 344.469C248.508 344.721 249.115 345.115 249.619 345.625L250.35 346.376L251.811 347.878L254.732 350.881L260.574 356.888C260.588 356.903 260.6 356.921 260.608 356.94C260.616 356.96 260.62 356.981 260.619 357.002C260.619 357.023 260.615 357.044 260.606 357.063C260.598 357.082 260.586 357.1 260.571 357.115C260.556 357.13 260.538 357.141 260.519 357.149C260.499 357.157 260.478 357.161 260.457 357.16C260.436 357.16 260.415 357.156 260.396 357.147C260.376 357.139 260.359 357.127 260.344 357.112L260.342 357.113Z" fill="url(#paint4_linear_1_11491)"/>
<path d="M262.654 355.362L257.555 349.509L255.006 346.582L253.731 345.119C253.518 344.877 253.306 344.626 253.093 344.392C252.877 344.161 252.637 343.953 252.377 343.772C251.835 343.432 251.254 343.155 250.648 342.95L248.849 342.222L245.251 340.767L238.056 337.857C238.052 337.856 238.048 337.853 238.045 337.85C238.042 337.847 238.039 337.844 238.038 337.84C238.036 337.836 238.035 337.832 238.035 337.827C238.035 337.823 238.036 337.819 238.038 337.815C238.039 337.811 238.042 337.807 238.045 337.804C238.048 337.801 238.051 337.798 238.055 337.797C238.059 337.795 238.063 337.794 238.068 337.794C238.072 337.794 238.076 337.795 238.08 337.796L245.299 340.647L248.909 342.072L250.714 342.785L251.617 343.143C252.23 343.396 252.782 343.775 253.24 344.254C253.464 344.497 253.671 344.739 253.888 344.981L255.174 346.434L257.748 349.339L262.894 355.15C262.923 355.182 262.937 355.224 262.934 355.266C262.932 355.309 262.913 355.348 262.881 355.377C262.849 355.405 262.807 355.419 262.765 355.417C262.723 355.414 262.683 355.395 262.655 355.363L262.654 355.362Z" fill="url(#paint5_linear_1_11491)"/>
<path d="M267.161 348.693L260.773 343.853L257.578 341.433C257.312 341.234 257.044 341.024 256.78 340.834C256.513 340.645 256.228 340.482 255.931 340.347C255.316 340.103 254.681 339.91 254.034 339.77L238.523 335.727C238.516 335.725 238.51 335.722 238.505 335.718C238.499 335.714 238.495 335.709 238.492 335.703C238.488 335.697 238.486 335.691 238.485 335.684C238.484 335.678 238.484 335.671 238.486 335.664C238.488 335.658 238.491 335.652 238.495 335.646C238.499 335.641 238.504 335.637 238.509 335.633C238.515 335.63 238.522 335.627 238.528 335.626C238.535 335.626 238.542 335.626 238.548 335.628L254.087 339.565L255.058 339.811C255.389 339.891 255.712 340.001 256.023 340.14C256.335 340.279 256.632 340.447 256.913 340.642C257.192 340.84 257.451 341.041 257.721 341.241L260.932 343.639L267.354 348.436C267.371 348.449 267.385 348.465 267.396 348.483C267.406 348.501 267.413 348.521 267.416 348.542C267.419 348.563 267.418 348.584 267.413 348.604C267.408 348.625 267.399 348.644 267.386 348.661C267.373 348.677 267.358 348.692 267.339 348.702C267.321 348.713 267.301 348.72 267.28 348.723C267.26 348.726 267.238 348.725 267.218 348.72C267.198 348.714 267.178 348.705 267.162 348.693L267.161 348.693Z" fill="url(#paint6_linear_1_11491)"/>
<path d="M232.409 350.765C230.969 350.302 229.204 349.493 226.774 348.986C224.907 348.6 223.347 349.272 221.565 350.274C219.546 351.404 217.245 352.961 213.902 353.899C208.118 355.516 208.452 353.315 205.894 352.523C205.646 352.445 205.394 352.385 205.137 352.346C201.714 351.794 201.505 353.851 199.864 351.799C198.223 349.747 202.603 341.386 202.603 341.386C202.603 341.386 202.909 339.568 205.689 339.029C206.26 338.92 206.867 338.8 207.507 338.679C207.591 339.21 207.921 339.918 208.766 340.807C209.561 341.603 210.439 342.311 211.384 342.919C216.814 346.541 215.005 344.73 222.244 346.541C228.572 348.121 230.752 348.323 232.409 350.765Z" fill="url(#paint7_linear_1_11491)"/>
<path d="M217.455 195.155C217.326 196.047 216.991 196.896 216.478 197.637C215.883 197.102 214.869 196.84 213.791 197.022C213.101 197.123 212.453 197.419 211.925 197.874C211.267 196.768 211.033 195.46 211.265 194.193C211.643 191.755 213.337 189.995 215.047 190.259C216.757 190.523 217.834 192.717 217.455 195.155Z" fill="#13233A"/>
<path d="M240.24 197.751C240.076 198.519 239.733 199.238 239.239 199.849C238.592 199.356 237.777 199.138 236.97 199.244C236.399 199.294 235.85 199.486 235.374 199.805C234.851 198.815 234.715 197.667 234.992 196.582C235.451 194.515 237 193.1 238.449 193.423C239.899 193.745 240.701 195.684 240.24 197.751Z" fill="#13233A"/>
<path d="M222.906 182.664L221.282 180.517C221.046 180.205 220.716 179.978 220.341 179.869C219.966 179.759 219.565 179.774 219.199 179.91L209.09 183.67C209.032 183.691 208.984 183.733 208.955 183.787C208.926 183.841 208.918 183.904 208.933 183.964C208.948 184.024 208.984 184.076 209.035 184.111C209.085 184.146 209.147 184.161 209.208 184.153L216.51 183.239C217.289 183.142 218.073 183.09 218.858 183.085L222.712 183.059C222.757 183.058 222.802 183.045 222.84 183.021C222.879 182.996 222.91 182.962 222.93 182.921C222.95 182.88 222.958 182.835 222.954 182.789C222.95 182.744 222.933 182.701 222.906 182.664Z" fill="#000C41"/>
<path d="M237.044 184.058L236.272 185.924C236.241 185.998 236.231 186.078 236.243 186.157C236.255 186.236 236.288 186.31 236.339 186.372C236.39 186.433 236.457 186.48 236.532 186.506C236.607 186.533 236.689 186.538 236.767 186.522L238.011 186.262C239.279 185.997 240.596 186.109 241.801 186.582L242.329 186.789C242.355 186.8 242.385 186.8 242.412 186.791C242.439 186.781 242.462 186.762 242.475 186.737C242.489 186.712 242.493 186.682 242.487 186.654C242.481 186.626 242.464 186.602 242.441 186.585L238.442 183.666C238.329 183.584 238.199 183.528 238.061 183.503C237.924 183.478 237.782 183.485 237.648 183.523C237.513 183.56 237.389 183.628 237.284 183.721C237.18 183.813 237.097 183.929 237.044 184.058Z" fill="#000C41"/>
<path d="M230.97 198.282L232.792 205.989C232.984 206.799 232.898 207.65 232.547 208.405C232.196 209.16 231.602 209.775 230.859 210.151L230.017 210.577C229.608 210.786 229.136 210.833 228.694 210.709C227.605 210.4 225.618 209.676 225.249 208.42C224.736 206.674 225.865 203.284 225.865 203.284L227.427 198.169C227.544 197.783 227.786 197.446 228.114 197.211C228.442 196.976 228.838 196.856 229.242 196.869C229.645 196.882 230.033 197.027 230.345 197.283C230.657 197.538 230.877 197.889 230.97 198.282Z" fill="url(#paint8_linear_1_11491)"/>
<path d="M214.686 211.61V211.626C214.679 211.685 214.664 211.743 214.642 211.799C214.622 211.847 214.606 211.888 214.586 211.927C214.546 212.012 214.501 212.087 214.457 212.164C214.369 212.313 214.268 212.458 214.172 212.599C213.977 212.878 213.768 213.147 213.544 213.404C213.321 213.658 213.085 213.901 212.837 214.132C212.815 214.152 212.792 214.17 212.768 214.188C212.571 214.368 212.364 214.537 212.149 214.695C212.112 214.727 212.073 214.756 212.032 214.783C210.912 215.569 209.643 216.115 208.304 216.389C208.261 216.398 208.217 216.392 208.18 216.37C208.142 216.349 208.114 216.314 208.101 216.273C208.089 216.231 208.092 216.187 208.111 216.148C208.13 216.109 208.163 216.079 208.203 216.063C209.415 215.598 210.56 214.976 211.61 214.212C211.682 214.156 211.754 214.104 211.823 214.043C211.932 213.963 212.032 213.874 212.133 213.787C212.205 213.726 212.274 213.662 212.342 213.597C212.579 213.376 212.821 213.151 213.066 212.934C213.311 212.716 213.549 212.495 213.778 212.27C213.893 212.158 214.001 212.04 214.104 211.916C214.152 211.855 214.2 211.795 214.244 211.735C214.289 211.682 214.329 211.586 214.349 211.582L214.61 211.55C214.628 211.549 214.646 211.554 214.66 211.565C214.674 211.576 214.683 211.592 214.686 211.61Z" fill="#E23A24"/>
<path d="M227.844 218.961C227.853 218.995 227.849 219.031 227.833 219.063C227.817 219.094 227.789 219.118 227.755 219.129C226.386 219.597 224.947 219.826 223.5 219.805C222.048 219.779 220.609 219.525 219.236 219.053C217.864 218.584 216.553 217.953 215.33 217.174C214.191 216.455 213.125 215.625 212.149 214.696C212.068 214.619 211.992 214.543 211.915 214.466C211.862 214.412 211.825 214.343 211.808 214.269C211.792 214.194 211.797 214.116 211.823 214.044C211.932 213.964 212.032 213.875 212.132 213.788C212.196 213.775 212.262 213.779 212.324 213.798C212.386 213.818 212.442 213.853 212.487 213.9C212.49 213.9 212.49 213.904 212.495 213.904L212.511 213.924C212.595 214.013 212.679 214.101 212.767 214.19C213.662 215.09 214.643 215.901 215.695 216.612C216.855 217.402 218.103 218.051 219.416 218.547C220.728 219.043 222.109 219.331 223.51 219.4C224.917 219.461 226.323 219.282 227.669 218.869C227.705 218.859 227.742 218.863 227.775 218.88C227.807 218.897 227.832 218.926 227.844 218.961Z" fill="#E23A24"/>
<path d="M314.557 348.35L356.188 342.919H388.768V350.161L343.518 359.213L315.16 356.105L314.557 348.35Z" fill="#3C3A91"/>
<path d="M314.557 348.351L343.094 351.066L343.518 359.213L315.16 356.106L314.557 348.351Z" fill="#8F8FBC"/>
<path d="M343.094 351.066L388.768 342.919V350.161L343.517 359.213L343.094 351.066Z" fill="#5B5BBC"/>
<path d="M368.379 346.556L343.518 359.213L388.768 350.161V342.919L368.379 346.556Z" fill="#4A4AA3"/>
<path d="M345.327 308.522L370.668 306.711L361.618 346.541L343.518 348.351H336.277L345.327 308.522Z" fill="#487CAF"/>
<path d="M345.327 308.522L353.473 307.939L343.518 348.351H336.277L345.327 308.522Z" fill="#93B6CC"/>
<path d="M343.094 319.36L349.761 323.005L359.73 333.539L343.517 348.351L361.618 346.541L368.379 316.784L343.094 319.36Z" fill="#315A7C"/>
<path d="M399.577 313.605L300.576 323.466L320.294 216.439H418.884L399.577 313.605Z" fill="#9096BF"/>
<path d="M320.295 216.44L329.037 216.188L307.316 323.005H300.076L320.295 216.44Z" fill="#ADABD6"/>
<path d="M418.885 216.439C418.885 216.439 393.416 270.155 362.298 288.645C331.181 307.134 307.316 323.004 307.316 323.004L399.578 313.605L418.885 216.439Z" fill="#6A74A5"/>
<path d="M320.295 216.439L300.076 323.466L302.228 323.302L322.469 216.45L320.295 216.439Z" fill="#DCDCF4"/>
<defs>
<linearGradient id="paint0_linear_1_11491" x1="17.8301" y1="296.292" x2="499.26" y2="296.292" gradientUnits="userSpaceOnUse">
<stop stop-color="#920069"/>
<stop offset="0.069" stop-color="#7C137E"/>
<stop offset="0.159" stop-color="#672693"/>
<stop offset="0.26" stop-color="#5833A2"/>
<stop offset="0.377" stop-color="#4F3BAA"/>
<stop offset="0.55" stop-color="#4C3DAD"/>
<stop offset="0.73" stop-color="#4A3FAF"/>
<stop offset="0.814" stop-color="#4246B6"/>
<stop offset="0.879" stop-color="#3551C3"/>
<stop offset="0.934" stop-color="#2361D4"/>
<stop offset="0.981" stop-color="#0C76EB"/>
<stop offset="1" stop-color="#0080F6"/>
</linearGradient>
<linearGradient id="paint1_linear_1_11491" x1="195.664" y1="230.685" x2="207.025" y2="219.327" gradientUnits="userSpaceOnUse">
<stop stop-color="#E07B58"/>
<stop offset="0.057" stop-color="#E27E5C"/>
<stop offset="0.671" stop-color="#F1987F"/>
<stop offset="1" stop-color="#F7A28D"/>
</linearGradient>
<linearGradient id="paint2_linear_1_11491" x1="179.974" y1="193.561" x2="186.099" y2="187.438" gradientUnits="userSpaceOnUse">
<stop stop-color="#E07B58"/>
<stop offset="0.057" stop-color="#E27E5C"/>
<stop offset="0.671" stop-color="#F1987F"/>
<stop offset="1" stop-color="#F7A28D"/>
</linearGradient>
<linearGradient id="paint3_linear_1_11491" x1="225.48" y1="348.028" x2="251.407" y2="348.028" gradientUnits="userSpaceOnUse">
<stop stop-color="#E07B58"/>
<stop offset="0.057" stop-color="#E27E5C"/>
<stop offset="0.671" stop-color="#F1987F"/>
<stop offset="1" stop-color="#F7A28D"/>
</linearGradient>
<linearGradient id="paint4_linear_1_11491" x1="232.432" y1="348.873" x2="260.617" y2="348.873" gradientUnits="userSpaceOnUse">
<stop stop-color="#E07B58"/>
<stop offset="0.057" stop-color="#E27E5C"/>
<stop offset="0.671" stop-color="#F1987F"/>
<stop offset="1" stop-color="#F7A28D"/>
</linearGradient>
<linearGradient id="paint5_linear_1_11491" x1="237.908" y1="346.606" x2="262.934" y2="346.606" gradientUnits="userSpaceOnUse">
<stop stop-color="#E07B58"/>
<stop offset="0.057" stop-color="#E27E5C"/>
<stop offset="0.671" stop-color="#F1987F"/>
<stop offset="1" stop-color="#F7A28D"/>
</linearGradient>
<linearGradient id="paint6_linear_1_11491" x1="238.375" y1="342.176" x2="267.418" y2="342.176" gradientUnits="userSpaceOnUse">
<stop stop-color="#E07B58"/>
<stop offset="0.057" stop-color="#E27E5C"/>
<stop offset="0.671" stop-color="#F1987F"/>
<stop offset="1" stop-color="#F7A28D"/>
</linearGradient>
<linearGradient id="paint7_linear_1_11491" x1="199.495" y1="346.578" x2="232.409" y2="346.578" gradientUnits="userSpaceOnUse">
<stop stop-color="#E07B58"/>
<stop offset="0.057" stop-color="#E27E5C"/>
<stop offset="0.671" stop-color="#F1987F"/>
<stop offset="1" stop-color="#F7A28D"/>
</linearGradient>
<linearGradient id="paint8_linear_1_11491" x1="229.004" y1="210.777" x2="229.004" y2="196.868" gradientUnits="userSpaceOnUse">
<stop stop-color="#E23A24"/>
<stop offset="0.982" stop-color="#FFDFAA"/>
</linearGradient>
</defs>
</svg>
