<svg width="206" height="49" viewBox="0 0 206 49" fill="none" xmlns="http://www.w3.org/2000/svg">
<path d="M138.336 31.8204C138.336 32.5887 137.728 33.293 136.511 33.9333C135.295 34.5522 133.79 34.8617 131.997 34.8617C128.988 34.8617 126.576 33.8586 124.762 31.8524C122.948 29.8248 122.041 27.1783 122.041 23.9129C122.041 20.4981 122.948 17.8302 124.762 15.9094C126.576 13.9672 129.031 12.9961 132.125 12.9961C133.79 12.9961 135.188 13.3376 136.319 14.0205C137.45 14.6822 138.016 15.5039 138.016 16.4856C138.016 17.3607 137.408 17.8942 136.191 18.0863C135.786 17.0405 135.145 16.2615 134.27 15.7493C133.395 15.2157 132.467 14.949 131.485 14.949C129.479 14.949 127.836 15.7493 126.555 17.35C125.296 18.9294 124.666 20.9036 124.666 23.2726C124.666 26.0045 125.306 28.2988 126.587 30.1556C127.868 31.9911 129.65 32.9088 131.933 32.9088C133.641 32.9088 135.017 32.3966 136.063 31.3722C136.02 28.7043 135.946 26.5487 135.839 24.9053C136.202 24.8413 136.586 24.8093 136.992 24.8093C138.037 24.8093 138.56 25.2148 138.56 26.0258L138.464 28.0747C138.379 29.4407 138.336 30.6892 138.336 31.8204Z" fill="white"/>
<path d="M142.922 18.1183C143.306 17.9903 143.754 17.9263 144.266 17.9263C144.843 17.9263 145.259 18.0223 145.515 18.2144C145.792 18.4065 145.931 18.7373 145.931 19.2068C145.931 19.9111 145.856 21.4585 145.707 23.8489C145.579 26.2392 145.515 28.1067 145.515 29.4513C145.515 30.5825 145.846 31.4362 146.507 32.0125C147.169 32.5887 147.948 32.8768 148.844 32.8768C149.655 32.8768 150.509 32.6847 151.405 32.3006C152.302 31.9164 153.027 31.4682 153.582 30.956C153.582 30.8493 153.582 30.5825 153.582 30.1556C153.604 29.7074 153.614 28.9498 153.614 27.8826C153.614 26.8155 153.614 25.4496 153.614 23.7848C153.614 21.5652 153.55 19.6443 153.422 18.0223C153.764 17.9583 154.18 17.9263 154.671 17.9263C155.653 17.9263 156.144 18.2464 156.144 18.8867C156.144 18.908 156.122 19.2175 156.079 19.8151C156.058 20.3913 156.026 21.2984 155.983 22.5363C155.941 23.7742 155.919 25.2041 155.919 26.8262C155.919 29.4086 155.941 31.1374 155.983 32.0125C156.047 32.8875 156.197 33.6985 156.432 34.4455C156.069 34.5522 155.599 34.6056 155.023 34.6056C154.468 34.6056 154.084 34.5095 153.871 34.3175C153.657 34.104 153.55 33.7199 153.55 33.165V32.7808C152.846 33.357 152.014 33.8373 151.053 34.2214C150.093 34.5842 149.207 34.7657 148.396 34.7657C146.774 34.7657 145.483 34.4028 144.522 33.6772C143.583 32.9515 143.114 31.6496 143.114 29.7715C143.114 28.7897 143.146 27.4665 143.21 25.8017C143.295 24.1156 143.338 22.8671 143.338 22.0561C143.338 20.434 143.199 19.1215 142.922 18.1183Z" fill="white"/>
<path d="M168.696 27.7866C168.29 26.8262 167.426 24.5532 166.102 20.9676C165.035 24.0409 164.192 26.3033 163.573 27.7546C164.854 27.7973 165.836 27.8186 166.519 27.8186C167.522 27.8186 168.247 27.8079 168.696 27.7866ZM166.006 29.5154C165.558 29.5154 164.523 29.494 162.901 29.4513C162.794 29.7074 162.559 30.273 162.197 31.1481C161.855 32.0231 161.578 32.7594 161.364 33.357C161.151 33.9333 160.969 34.4989 160.82 35.0538C159.561 34.883 158.931 34.5522 158.931 34.0614C158.931 33.8479 159.027 33.4958 159.219 33.0049C159.433 32.514 159.785 31.703 160.276 30.5718C160.788 29.4193 161.268 28.2668 161.716 27.1143C163.381 22.8244 164.47 19.8151 164.982 18.0863C165.323 18.0223 165.718 17.9903 166.166 17.9903C166.636 17.9903 166.967 18.065 167.159 18.2144C167.351 18.3424 167.564 18.7159 167.799 19.3349C167.97 19.7831 168.429 21.0316 169.176 23.0805C169.944 25.1081 170.542 26.6661 170.969 27.7546C171.993 30.273 172.996 32.4606 173.978 34.3175C173.38 34.6163 172.9 34.7657 172.537 34.7657C171.897 34.7657 171.459 34.5522 171.225 34.1254C171.097 33.8266 170.467 32.2686 169.336 29.4513C167.5 29.494 166.39 29.5154 166.006 29.5154Z" fill="white"/>
<path d="M186.169 32.3006C186.638 32.7701 187.15 33.0049 187.705 33.0049C187.812 33.0049 188.036 32.9835 188.378 32.9409C188.527 33.2397 188.602 33.5171 188.602 33.7732C188.602 34.4348 187.908 34.7657 186.521 34.7657C185.902 34.7657 185.304 34.5416 184.728 34.0934C184.152 33.6238 183.597 32.9622 183.063 32.1085C182.53 31.2334 182.114 30.5078 181.815 29.9315C181.537 29.3339 181.196 28.5763 180.79 27.6585C180.385 27.5732 180.182 27.3597 180.182 27.0183C180.182 26.8048 180.257 26.4847 180.406 26.0578C180.876 26.1645 181.281 26.2179 181.623 26.2179C182.604 26.2179 183.405 25.9191 184.024 25.3215C184.643 24.7026 184.952 23.8702 184.952 22.8244C184.952 21.5865 184.611 20.7222 183.928 20.2313C183.245 19.7404 182.199 19.4949 180.79 19.4949C180.662 19.4949 180.022 19.527 178.869 19.591C178.955 20.5728 178.998 22.2482 178.998 24.6172V29.5474C178.998 31.767 179.158 33.3997 179.478 34.4455C179.115 34.5522 178.645 34.6056 178.069 34.6056C177.493 34.6056 177.098 34.4989 176.885 34.2855C176.693 34.072 176.596 33.7092 176.596 33.197C176.596 32.9409 176.607 32.2899 176.629 31.2441C176.65 30.1983 176.661 29.3766 176.661 28.779V23.7848C176.661 21.4371 176.543 19.527 176.308 18.0543C177.461 17.8622 178.805 17.7662 180.342 17.7662C185.123 17.7662 187.513 19.4416 187.513 22.7924C187.513 24.1156 187.129 25.1935 186.361 26.0258C185.614 26.8582 184.611 27.4131 183.351 27.6906C184.653 30.1876 185.592 31.7243 186.169 32.3006Z" fill="white"/>
<path d="M191.806 33.229C192.041 31.799 192.18 29.0031 192.222 24.8413C192.222 21.9814 192.116 19.719 191.902 18.0543C192.927 17.8622 194.303 17.7662 196.032 17.7662C197.419 17.7662 198.657 17.9049 199.746 18.1824C200.855 18.4598 201.869 18.9187 202.787 19.559C203.726 20.1779 204.441 21.053 204.932 22.1841C205.444 23.3153 205.7 24.6706 205.7 26.2499C205.7 28.7257 204.985 30.7639 203.555 32.3646C202.125 33.9653 200.098 34.7657 197.473 34.7657C195.018 34.7657 193.129 34.2534 191.806 33.229ZM194.431 19.591C194.495 20.4447 194.527 21.7573 194.527 23.5287C194.527 27.157 194.41 30.0276 194.175 32.1405C195.05 32.7168 196.16 33.0049 197.505 33.0049C198.55 33.0049 199.458 32.8128 200.226 32.4286C200.994 32.0445 201.581 31.5322 201.987 30.892C202.392 30.2303 202.68 29.558 202.851 28.8751C203.043 28.1708 203.139 27.4451 203.139 26.6981C203.139 24.3077 202.52 22.5149 201.282 21.3198C200.066 20.1032 198.316 19.4949 196.032 19.4949C195.883 19.4949 195.723 19.5056 195.552 19.527C195.381 19.527 195.178 19.5376 194.944 19.559C194.73 19.5803 194.559 19.591 194.431 19.591Z" fill="white"/>
<path d="M67.5982 17.4781C67.2354 16.7738 66.5844 16.1975 65.6453 15.7493C64.7062 15.2798 63.7351 15.045 62.732 15.045C61.6436 15.045 60.7258 15.3438 59.9788 15.9414C59.2532 16.539 58.8904 17.414 58.8904 18.5665C58.8904 19.4416 59.1571 20.1672 59.6907 20.7435C60.2456 21.2984 60.9286 21.6932 61.7396 21.928C62.5506 22.1414 63.4364 22.4082 64.3968 22.7284C65.3572 23.0485 66.2429 23.3793 67.0539 23.7208C67.865 24.0623 68.5373 24.6492 69.0708 25.4816C69.6257 26.3139 69.9032 27.3491 69.9032 28.5869C69.9032 29.6968 69.6898 30.6785 69.2629 31.5322C68.8361 32.3646 68.2598 33.0156 67.5342 33.4851C66.8085 33.9546 66.0188 34.3068 65.1651 34.5416C64.3327 34.755 63.447 34.8617 62.5079 34.8617C60.8432 34.8617 59.3706 34.5736 58.09 33.9973C56.8308 33.3997 56.2012 32.6847 56.2012 31.8524C56.2012 31.5749 56.2865 31.3295 56.4573 31.1161C56.6494 30.8813 56.8308 30.7105 57.0015 30.6038C57.1723 30.4971 57.4497 30.3477 57.8339 30.1556C58.2394 30.9453 58.9651 31.5963 60.0108 32.1085C61.078 32.5994 62.1558 32.8448 63.2443 32.8448C64.4395 32.8448 65.4639 32.5247 66.3176 31.8844C67.1713 31.2228 67.5982 30.2837 67.5982 29.0672C67.5982 28.064 67.214 27.2744 66.4457 26.6981C65.6987 26.1005 64.7809 25.6523 63.6925 25.3535C62.6253 25.0547 61.5475 24.7239 60.459 24.3611C59.3919 23.9983 58.4742 23.39 57.7058 22.5363C56.9588 21.6612 56.5853 20.5087 56.5853 19.0788C56.5853 17.1152 57.2256 15.6106 58.5062 14.5648C59.8081 13.519 61.4622 12.9961 63.4684 12.9961C64.941 12.9961 66.2963 13.2522 67.5342 13.7644C68.7934 14.2767 69.423 14.981 69.423 15.8774C69.423 16.7311 68.8147 17.2646 67.5982 17.4781Z" fill="#E0E0E0"/>
<path d="M91.083 23.6568V29.4833C91.083 31.7243 91.2431 33.3784 91.5632 34.4455C91.2858 34.5522 90.8482 34.6056 90.2506 34.6056C89.653 34.6056 89.2475 34.4989 89.0341 34.2855C88.842 34.072 88.746 33.7092 88.746 33.197C88.746 32.6207 88.746 31.02 88.746 28.3949C88.7673 25.7484 88.778 23.39 88.778 21.3198C87.3694 24.2437 85.7367 28.6403 83.8798 34.5095C83.6237 34.5736 83.2822 34.6056 82.8554 34.6056C82.1938 34.5629 81.7669 34.3495 81.5748 33.9653C81.1053 33.0049 80.3263 31.052 79.2378 28.1067C78.1493 25.1614 77.2209 22.8991 76.4526 21.3198V29.4833C76.4526 31.7243 76.6233 33.3784 76.9648 34.4455C76.5379 34.5522 76.1538 34.6056 75.8123 34.6056C75.2574 34.6056 74.8839 34.4989 74.6918 34.2855C74.4997 34.072 74.4037 33.7092 74.4037 33.197C74.4037 32.9409 74.4037 32.2899 74.4037 31.2441C74.425 30.1983 74.4357 29.3766 74.4357 28.779V22.5043C74.4357 20.6261 74.2756 19.1535 73.9555 18.0863C74.5958 17.9583 75.1507 17.8942 75.6202 17.8942C76.4953 17.8942 77.1782 18.2998 77.6691 19.1108C78.3521 20.1779 79.0244 21.5118 79.686 23.1125C80.369 24.6919 80.9025 26.0472 81.2867 27.1783C81.6709 28.2881 82.1831 29.8462 82.8234 31.8524C84.1253 26.6661 85.822 22.4082 87.9136 19.0788C88.3831 18.2891 89.0661 17.8942 89.9625 17.8942C90.4747 17.8942 91.0083 17.9583 91.5632 18.0863C91.2431 19.0894 91.083 20.9463 91.083 23.6568Z" fill="#E0E0E0"/>
<path d="M113.937 23.6568V29.4833C113.937 31.7243 114.097 33.3784 114.417 34.4455C114.14 34.5522 113.702 34.6056 113.104 34.6056C112.507 34.6056 112.101 34.4989 111.888 34.2855C111.696 34.072 111.6 33.7092 111.6 33.197C111.6 32.6207 111.6 31.02 111.6 28.3949C111.621 25.7484 111.632 23.39 111.632 21.3198C110.223 24.2437 108.59 28.6403 106.734 34.5095C106.478 34.5736 106.136 34.6056 105.709 34.6056C105.048 34.5629 104.621 34.3495 104.429 33.9653C103.959 33.0049 103.18 31.052 102.092 28.1067C101.003 25.1614 100.075 22.8991 99.3064 21.3198V29.4833C99.3064 31.7243 99.4771 33.3784 99.8186 34.4455C99.3917 34.5522 99.0076 34.6056 98.6661 34.6056C98.1112 34.6056 97.7377 34.4989 97.5456 34.2855C97.3535 34.072 97.2575 33.7092 97.2575 33.197C97.2575 32.9409 97.2575 32.2899 97.2575 31.2441C97.2788 30.1983 97.2895 29.3766 97.2895 28.779V22.5043C97.2895 20.6261 97.1294 19.1535 96.8093 18.0863C97.4495 17.9583 98.0045 17.8942 98.474 17.8942C99.349 17.8942 100.032 18.2998 100.523 19.1108C101.206 20.1779 101.878 21.5118 102.54 23.1125C103.223 24.6919 103.756 26.0472 104.14 27.1783C104.525 28.2881 105.037 29.8462 105.677 31.8524C106.979 26.6661 108.676 22.4082 110.767 19.0788C111.237 18.2891 111.92 17.8942 112.816 17.8942C113.329 17.8942 113.862 17.9583 114.417 18.0863C114.097 19.0894 113.937 20.9463 113.937 23.6568Z" fill="#E0E0E0"/>
<path d="M1.04688 3.94464L6.38484 10.8649C14.9256 5.49905 32.8304 3.51879 40.7153 3.19938C24.2199 -2.933 7.39661 1.14106 1.04688 3.94464Z" fill="#E0E0E0"/>
<path d="M10.7808 29.1768L6.38484 33.2225C11.4088 40.9731 19.0145 46.3177 22.1894 48.0211C42.7039 34.1807 43.3319 11.1842 42.9133 11.5036C42.5783 11.7591 38.7266 12.7457 36.8426 13.2071C36.7589 14.4846 35.482 19.7724 34.854 22.2566C32.5501 32.3069 25.2416 38.3683 21.8754 40.1427C17.1864 38.5244 12.5252 32.1578 10.7808 29.1768Z" fill="#E0E0E0"/>
<path d="M6.69862 16.6147C5.27517 15.9333 1.63977 10.5817 0 7.99106C0.58613 19.4893 3.66331 27.5451 5.12863 30.1358C19.5307 14.379 41.9711 7.52971 51.391 6.07469C33.7234 3.94539 14.2346 12.2142 6.69862 16.6147Z" fill="white"/>
</svg>
