<svg width="180" height="43" viewBox="0 0 180 43" fill="none" xmlns="http://www.w3.org/2000/svg">
<path d="M121.052 27.8805C121.052 28.5528 120.52 29.1691 119.455 29.7294C118.391 30.271 117.074 30.5418 115.505 30.5418C112.872 30.5418 110.762 29.664 109.174 27.9085C107.587 26.1343 106.793 23.8184 106.793 20.961C106.793 17.9728 107.587 15.6383 109.174 13.9575C110.762 12.258 112.909 11.4082 115.617 11.4082C117.074 11.4082 118.297 11.707 119.287 12.3047C120.277 12.8836 120.772 13.6026 120.772 14.4617C120.772 15.2275 120.24 15.6944 119.175 15.8624C118.82 14.9473 118.26 14.2656 117.494 13.8174C116.729 13.3505 115.916 13.1171 115.057 13.1171C113.302 13.1171 111.864 13.8174 110.743 15.2181C109.641 16.6001 109.09 18.3277 109.09 20.4007C109.09 22.7913 109.65 24.7989 110.771 26.4237C111.892 28.0299 113.451 28.833 115.449 28.833C116.943 28.833 118.148 28.3847 119.063 27.4883C119.026 25.1538 118.96 23.2675 118.867 21.8294C119.185 21.7734 119.521 21.7454 119.876 21.7454C120.791 21.7454 121.248 22.1002 121.248 22.8099L121.164 24.6028C121.089 25.7981 121.052 26.8906 121.052 27.8805Z" fill="white"/>
<path d="M125.065 15.8905C125.401 15.7784 125.793 15.7224 126.241 15.7224C126.746 15.7224 127.11 15.8064 127.334 15.9745C127.577 16.1426 127.698 16.4321 127.698 16.8429C127.698 17.4592 127.633 18.8133 127.502 20.905C127.39 22.9967 127.334 24.6308 127.334 25.8074C127.334 26.7973 127.623 27.5443 128.202 28.0486C128.781 28.5528 129.463 28.8049 130.247 28.8049C130.957 28.8049 131.704 28.6369 132.488 28.3007C133.273 27.9645 133.908 27.5723 134.393 27.1241C134.393 27.0307 134.393 26.7973 134.393 26.4237C134.412 26.0315 134.421 25.3685 134.421 24.4347C134.421 23.5009 134.421 22.3057 134.421 20.8489C134.421 18.9066 134.365 17.2258 134.253 15.8064C134.552 15.7504 134.916 15.7224 135.346 15.7224C136.205 15.7224 136.635 16.0025 136.635 16.5628C136.635 16.5815 136.616 16.8523 136.578 17.3752C136.56 17.8795 136.532 18.6732 136.494 19.7564C136.457 20.8396 136.438 22.0909 136.438 23.5103C136.438 25.7701 136.457 27.2828 136.494 28.0486C136.55 28.8143 136.681 29.524 136.887 30.1776C136.569 30.271 136.158 30.3177 135.654 30.3177C135.168 30.3177 134.832 30.2337 134.646 30.0656C134.459 29.8788 134.365 29.5426 134.365 29.0571V28.7209C133.749 29.2252 133.021 29.6454 132.18 29.9815C131.34 30.299 130.565 30.4578 129.855 30.4578C128.436 30.4578 127.306 30.1403 126.465 29.5053C125.644 28.8703 125.233 27.7311 125.233 26.0876C125.233 25.2285 125.261 24.0706 125.317 22.6138C125.392 21.1384 125.429 20.0459 125.429 19.3362C125.429 17.9168 125.307 16.7682 125.065 15.8905Z" fill="white"/>
<path d="M147.618 24.3507C147.263 23.5103 146.507 21.5213 145.349 18.3837C144.415 21.0731 143.678 23.0527 143.136 24.3227C144.257 24.36 145.116 24.3787 145.713 24.3787C146.591 24.3787 147.226 24.3694 147.618 24.3507ZM145.265 25.8635C144.873 25.8635 143.967 25.8448 142.548 25.8074C142.454 26.0315 142.249 26.5265 141.931 27.2922C141.633 28.0579 141.39 28.7022 141.203 29.2252C141.016 29.7294 140.857 30.2243 140.727 30.7099C139.625 30.5605 139.074 30.271 139.074 29.8415C139.074 29.6547 139.158 29.3465 139.326 28.917C139.513 28.4874 139.821 27.7778 140.251 26.7879C140.699 25.7794 141.119 24.7709 141.511 23.7624C142.968 20.0085 143.92 17.3752 144.369 15.8624C144.667 15.8064 145.013 15.7784 145.405 15.7784C145.816 15.7784 146.105 15.8438 146.274 15.9745C146.442 16.0866 146.628 16.4134 146.834 16.955C146.983 17.3472 147.385 18.4397 148.038 20.2326C148.711 22.0069 149.234 23.3702 149.607 24.3227C150.504 26.5265 151.381 28.4408 152.241 30.0656C151.718 30.327 151.297 30.4578 150.98 30.4578C150.42 30.4578 150.037 30.271 149.831 29.8975C149.719 29.636 149.168 28.2727 148.178 25.8074C146.572 25.8448 145.601 25.8635 145.265 25.8635Z" fill="white"/>
<path d="M162.908 28.3007C163.319 28.7116 163.767 28.917 164.253 28.917C164.346 28.917 164.542 28.8983 164.841 28.861C164.972 29.1224 165.037 29.3652 165.037 29.5893C165.037 30.1683 164.43 30.4578 163.216 30.4578C162.675 30.4578 162.152 30.2617 161.648 29.8695C161.143 29.4586 160.658 28.8796 160.191 28.1326C159.724 27.3669 159.36 26.7319 159.098 26.2276C158.856 25.7047 158.557 25.0417 158.202 24.2386C157.847 24.1639 157.67 23.9772 157.67 23.6784C157.67 23.4916 157.735 23.2115 157.866 22.8379C158.277 22.9313 158.631 22.978 158.93 22.978C159.789 22.978 160.49 22.7165 161.031 22.1936C161.573 21.652 161.844 20.9236 161.844 20.0085C161.844 18.9253 161.545 18.1689 160.947 17.7394C160.35 17.3098 159.434 17.0951 158.202 17.0951C158.09 17.0951 157.53 17.1231 156.521 17.1791C156.596 18.0382 156.633 19.5043 156.633 21.5773V25.8915C156.633 27.8338 156.773 29.2625 157.053 30.1776C156.736 30.271 156.325 30.3177 155.821 30.3177C155.316 30.3177 154.971 30.2243 154.784 30.0376C154.616 29.8508 154.532 29.5333 154.532 29.0851C154.532 28.861 154.541 28.2913 154.56 27.3762C154.579 26.4611 154.588 25.7421 154.588 25.2191V20.8489C154.588 18.7946 154.485 17.1231 154.28 15.8344C155.288 15.6663 156.465 15.5823 157.81 15.5823C161.993 15.5823 164.085 17.0484 164.085 19.9805C164.085 21.1384 163.749 22.0816 163.076 22.8099C162.423 23.5383 161.545 24.0239 160.443 24.2667C161.582 26.4518 162.404 27.7964 162.908 28.3007Z" fill="white"/>
<path d="M167.841 29.1131C168.047 27.8618 168.168 25.4152 168.205 21.7734C168.205 19.2708 168.112 17.2912 167.925 15.8344C168.822 15.6663 170.026 15.5823 171.539 15.5823C172.753 15.5823 173.836 15.7037 174.789 15.9465C175.76 16.1893 176.647 16.5908 177.45 17.1511C178.272 17.6927 178.898 18.4584 179.327 19.4482C179.775 20.4381 179.999 21.624 179.999 23.006C179.999 25.1724 179.374 26.956 178.122 28.3567C176.871 29.7574 175.097 30.4578 172.8 30.4578C170.652 30.4578 168.999 30.0095 167.841 29.1131ZM170.138 17.1791C170.194 17.9261 170.223 19.0747 170.223 20.6248C170.223 23.7998 170.12 26.3117 169.914 28.1606C170.68 28.6649 171.651 28.917 172.828 28.917C173.743 28.917 174.537 28.7489 175.209 28.4127C175.881 28.0766 176.395 27.6283 176.75 27.0681C177.105 26.4891 177.357 25.9008 177.506 25.3032C177.674 24.6869 177.758 24.0519 177.758 23.3982C177.758 21.3065 177.217 19.7377 176.133 18.6919C175.069 17.6273 173.538 17.0951 171.539 17.0951C171.408 17.0951 171.268 17.1044 171.119 17.1231C170.97 17.1231 170.792 17.1324 170.587 17.1511C170.4 17.1698 170.251 17.1791 170.138 17.1791Z" fill="white"/>
<path d="M59.1527 15.3302C58.8352 14.7139 58.2656 14.2096 57.4438 13.8174C56.6221 13.4065 55.7723 13.2011 54.8946 13.2011C53.9421 13.2011 53.139 13.4626 52.4853 13.9855C51.8504 14.5084 51.5329 15.2741 51.5329 16.2827C51.5329 17.0484 51.7663 17.6834 52.2332 18.1876C52.7188 18.6732 53.3164 19.0187 54.0261 19.2241C54.7358 19.4109 55.5109 19.6443 56.3513 19.9245C57.1917 20.2046 57.9668 20.4941 58.6765 20.7929C59.3861 21.0917 59.9744 21.6053 60.4413 22.3337C60.9269 23.0621 61.1697 23.9678 61.1697 25.0511C61.1697 26.0222 60.9829 26.8813 60.6094 27.6283C60.2359 28.3567 59.7317 28.9263 59.0967 29.3372C58.4617 29.7481 57.7707 30.0562 57.0236 30.2617C56.2953 30.4484 55.5202 30.5418 54.6985 30.5418C53.2417 30.5418 51.9531 30.2897 50.8325 29.7854C49.7306 29.2625 49.1797 28.6369 49.1797 27.9085C49.1797 27.6657 49.2544 27.4509 49.4038 27.2642C49.5719 27.0587 49.7306 26.9093 49.88 26.8159C50.0294 26.7226 50.2722 26.5918 50.6084 26.4237C50.9632 27.1148 51.5982 27.6844 52.5134 28.1326C53.4472 28.5622 54.3903 28.7769 55.3428 28.7769C56.3886 28.7769 57.2851 28.4968 58.0321 27.9365C58.7792 27.3575 59.1527 26.5358 59.1527 25.4713C59.1527 24.5935 58.8165 23.9025 58.1442 23.3982C57.4905 22.8753 56.6875 22.4831 55.735 22.2216C54.8012 21.9602 53.858 21.6707 52.9056 21.3532C51.9718 21.0357 51.1687 20.5034 50.4963 19.7564C49.8427 18.9907 49.5159 17.9822 49.5159 16.7309C49.5159 15.0127 50.0761 13.696 51.1967 12.7809C52.3359 11.8658 53.7833 11.4082 55.5389 11.4082C56.8275 11.4082 58.0135 11.6323 59.0967 12.0805C60.1986 12.5288 60.7495 13.1451 60.7495 13.9295C60.7495 14.6765 60.2172 15.1434 59.1527 15.3302Z" fill="#E0E0E0"/>
<path d="M79.7032 20.7369V25.8354C79.7032 27.7964 79.8433 29.2438 80.1234 30.1776C79.8806 30.271 79.4978 30.3177 78.9748 30.3177C78.4519 30.3177 78.0971 30.2243 77.9103 30.0376C77.7422 29.8508 77.6582 29.5333 77.6582 29.0851C77.6582 28.5808 77.6582 27.1801 77.6582 24.883C77.6769 22.5671 77.6862 20.5034 77.6862 18.6919C76.4536 21.2505 75.0249 25.0977 73.4 30.2337C73.1759 30.2897 72.8771 30.3177 72.5036 30.3177C71.9246 30.2803 71.5511 30.0936 71.383 29.7574C70.9722 28.917 70.2905 27.2081 69.338 24.6308C68.3855 22.0535 67.5731 20.0739 66.9008 18.6919V25.8354C66.9008 27.7964 67.0502 29.2438 67.349 30.1776C66.9755 30.271 66.6393 30.3177 66.3405 30.3177C65.8549 30.3177 65.5281 30.2243 65.36 30.0376C65.1919 29.8508 65.1079 29.5333 65.1079 29.0851C65.1079 28.861 65.1079 28.2913 65.1079 27.3762C65.1265 26.4611 65.1359 25.7421 65.1359 25.2191V19.7284C65.1359 18.0849 64.9958 16.7962 64.7157 15.8624C65.276 15.7504 65.7615 15.6944 66.1724 15.6944C66.9381 15.6944 67.5358 16.0492 67.9653 16.7589C68.5629 17.6927 69.1512 18.8599 69.7302 20.2606C70.3278 21.6427 70.7947 22.8286 71.1309 23.8184C71.4671 24.7896 71.9153 26.1529 72.4756 27.9085C73.6148 23.3702 75.0996 19.6443 76.9298 16.7309C77.3407 16.0399 77.9383 15.6944 78.7227 15.6944C79.1709 15.6944 79.6378 15.7504 80.1234 15.8624C79.8433 16.7402 79.7032 18.365 79.7032 20.7369Z" fill="#E0E0E0"/>
<path d="M99.7015 20.7369V25.8354C99.7015 27.7964 99.8416 29.2438 100.122 30.1776C99.8789 30.271 99.4961 30.3177 98.9732 30.3177C98.4502 30.3177 98.0954 30.2243 97.9086 30.0376C97.7405 29.8508 97.6565 29.5333 97.6565 29.0851C97.6565 28.5808 97.6565 27.1801 97.6565 24.883C97.6752 22.5671 97.6845 20.5034 97.6845 18.6919C96.4519 21.2505 95.0232 25.0977 93.3984 30.2337C93.1742 30.2897 92.8754 30.3177 92.5019 30.3177C91.923 30.2803 91.5494 30.0936 91.3813 29.7574C90.9705 28.917 90.2888 27.2081 89.3363 24.6308C88.3838 22.0535 87.5714 20.0739 86.8991 18.6919V25.8354C86.8991 27.7964 87.0485 29.2438 87.3473 30.1776C86.9738 30.271 86.6376 30.3177 86.3388 30.3177C85.8532 30.3177 85.5264 30.2243 85.3583 30.0376C85.1902 29.8508 85.1062 29.5333 85.1062 29.0851C85.1062 28.861 85.1062 28.2913 85.1062 27.3762C85.1249 26.4611 85.1342 25.7421 85.1342 25.2191V19.7284C85.1342 18.0849 84.9941 16.7962 84.714 15.8624C85.2743 15.7504 85.7599 15.6944 86.1707 15.6944C86.9364 15.6944 87.5341 16.0492 87.9636 16.7589C88.5613 17.6927 89.1496 18.8599 89.7285 20.2606C90.3262 21.6427 90.7931 22.8286 91.1292 23.8184C91.4654 24.7896 91.9136 26.1529 92.4739 27.9085C93.6131 23.3702 95.0979 19.6443 96.9281 16.7309C97.339 16.0399 97.9366 15.6944 98.721 15.6944C99.1693 15.6944 99.6362 15.7504 100.122 15.8624C99.8416 16.7402 99.7015 18.365 99.7015 20.7369Z" fill="#E0E0E0"/>
<path d="M0.916016 3.48693L5.58703 9.54251C13.0606 4.84713 28.7284 3.11429 35.6281 2.83479C21.1937 -2.53138 6.47238 1.03365 0.916016 3.48693Z" fill="#E0E0E0"/>
<path d="M9.43375 25.5665L5.58703 29.1066C9.98328 35.8889 16.6387 40.5657 19.4169 42.0563C37.3682 29.9451 37.9178 9.82197 37.5514 10.1015C37.2583 10.325 33.8879 11.1884 32.2393 11.5921C32.166 12.71 31.0486 17.3371 30.4991 19.5109C28.4831 28.3054 22.0878 33.6095 19.1421 35.1622C15.039 33.7461 10.9602 28.175 9.43375 25.5665Z" fill="#E0E0E0"/>
<path d="M5.86166 14.5731C4.61606 13.9769 1.43489 9.29393 0 7.02697C0.512896 17.0885 3.2056 24.1378 4.48784 26.4048C17.0904 12.6167 36.727 6.62327 44.97 5.35004C29.5098 3.48679 12.456 10.7224 5.86166 14.5731Z" fill="#4E90D9"/>
</svg>
