<svg width="110" height="112" viewBox="0 0 110 112" fill="none" xmlns="http://www.w3.org/2000/svg">
<g filter="url(#filter0_dd_1_11309)">
<rect x="7" width="96" height="96" rx="10" fill="#F8FAFD"/>
</g>
<g clip-path="url(#clip0_1_11309)">
<path d="M76.2789 30.1519C68.9868 28.1539 61.6518 25.0427 55.0668 21.1549C54.7171 20.9484 54.283 20.9484 53.9333 21.1549C47.1585 25.1544 40.2198 28.0973 32.7206 30.1519C32.2362 30.2845 31.9004 30.7249 31.9004 31.2272V42.6187C31.9004 54.3494 37.3121 62.1143 41.8521 66.5624C46.7396 71.3516 52.433 74 54.5001 74C56.567 74 62.2603 71.3516 67.1479 66.5624C71.6878 62.1144 77.0992 54.3495 77.0992 42.6187V31.2271C77.0992 30.7249 76.7634 30.2845 76.2789 30.1519ZM74.8694 42.6186C74.8694 53.575 69.8219 60.8205 65.5873 64.9697C60.781 69.6791 55.6422 71.7701 54.5001 71.7701C53.358 71.7701 48.2189 69.6791 43.4124 64.9697C39.1779 60.8204 34.1302 53.575 34.1302 42.6186V32.0735C41.3016 30.0373 47.9802 27.1957 54.5003 23.4068C60.8576 27.0952 67.8694 30.0781 74.8694 32.0731V42.6186Z" fill="#4582BA"/>
<path d="M44.6175 31.9488C44.3919 31.3758 43.7446 31.0944 43.1715 31.3201C41.1799 32.1049 39.1357 32.8272 37.0957 33.4671C36.6308 33.6131 36.3145 34.0437 36.3145 34.5309V38.8362C36.3145 39.4519 36.8137 39.951 37.4293 39.951C38.0449 39.951 38.5442 39.4519 38.5442 38.8362V35.3456C40.3742 34.7535 42.2023 34.0986 43.9889 33.3946C44.5618 33.169 44.8433 32.5217 44.6175 31.9488Z" fill="#4582BA"/>
<path d="M46.7346 32.1605C46.8842 32.1605 47.036 32.1304 47.1817 32.0668L47.2022 32.0579C47.7662 31.8107 48.0203 31.1541 47.7731 30.5903C47.5257 30.0262 46.8653 29.7711 46.3019 30.018L46.2839 30.0258C45.7195 30.2723 45.4647 30.9284 45.7111 31.4925C45.8941 31.9113 46.3045 32.1605 46.7346 32.1605Z" fill="#4582BA"/>
<path d="M67.7823 56.9492C67.2671 56.6125 66.5762 56.7573 66.2391 57.2727C65.3204 58.6789 64.2426 60.0254 63.0352 61.2745C62.0423 62.3016 60.9663 63.2589 59.8373 64.1197C59.3477 64.4929 59.2535 65.1925 59.6267 65.6822C59.8463 65.9699 60.1782 66.1212 60.5141 66.1212C60.7499 66.1212 60.9874 66.0468 61.1893 65.8928C62.4071 64.9641 63.5676 63.9318 64.6381 62.8244C65.9435 61.4741 67.1102 60.0166 68.1058 58.4923C68.4427 57.9768 68.2977 57.286 67.7823 56.9492Z" fill="#4582BA"/>
<path d="M57.2494 65.8677L57.1855 65.9054C56.6527 66.214 56.4706 66.896 56.7791 67.4288C56.9858 67.7859 57.36 67.9853 57.7449 67.9853C57.9344 67.9853 58.1267 67.9369 58.3024 67.835L58.3762 67.7916C58.9075 67.4804 59.086 66.7975 58.7748 66.2662C58.4634 65.735 57.7805 65.5569 57.2494 65.8677Z" fill="#4582BA"/>
<path d="M46.9017 45.2251C46.2172 44.5405 45.3068 44.1637 44.3385 44.1637C43.3702 44.1637 42.4597 44.5406 41.7748 45.2251C40.3615 46.6387 40.3615 48.9388 41.7748 50.3523L48.358 56.9353C49.0426 57.6197 49.9531 57.9966 50.9214 57.9966C51.8898 57.9966 52.8002 57.6197 53.485 56.9351L67.2278 43.1922C68.641 41.7782 68.641 39.4784 67.2276 38.0654C66.543 37.3807 65.6325 37.0039 64.664 37.0039C63.6957 37.0039 62.7852 37.3808 62.1005 38.0654L50.9213 49.2445L46.9017 45.2251ZM63.6772 39.6421C63.9407 39.3787 64.2913 39.2336 64.6641 39.2336C65.0372 39.2336 65.3875 39.3787 65.6512 39.6421C66.1951 40.1861 66.1951 41.0715 65.651 41.6157L51.9084 55.3584C51.6449 55.6219 51.2943 55.7669 50.9214 55.7669C50.5486 55.7669 50.198 55.6219 49.9344 55.3584L43.3515 48.7757C42.8073 48.2315 42.8073 47.346 43.3513 46.8021C43.6148 46.5386 43.9654 46.3934 44.3384 46.3934C44.7113 46.3934 45.0617 46.5384 45.3252 46.8019L50.133 51.6097C50.3422 51.8187 50.6256 51.9362 50.9213 51.9362C51.2171 51.9362 51.5005 51.8188 51.7095 51.6097L63.6772 39.6421Z" fill="#4582BA"/>
</g>
<defs>
<filter id="filter0_dd_1_11309" x="0.0503192" y="0" width="109.899" height="111.637" filterUnits="userSpaceOnUse" color-interpolation-filters="sRGB">
<feFlood flood-opacity="0" result="BackgroundImageFix"/>
<feColorMatrix in="SourceAlpha" type="matrix" values="0 0 0 0 0 0 0 0 0 0 0 0 0 0 0 0 0 0 127 0" result="hardAlpha"/>
<feOffset dy="3.43489"/>
<feGaussianBlur stdDeviation="1.37396"/>
<feColorMatrix type="matrix" values="0 0 0 0 0.0235294 0 0 0 0 0.133333 0 0 0 0 0.517647 0 0 0 0.06 0"/>
<feBlend mode="normal" in2="BackgroundImageFix" result="effect1_dropShadow_1_11309"/>
<feColorMatrix in="SourceAlpha" type="matrix" values="0 0 0 0 0 0 0 0 0 0 0 0 0 0 0 0 0 0 127 0" result="hardAlpha"/>
<feOffset dy="8.6871"/>
<feGaussianBlur stdDeviation="3.47484"/>
<feColorMatrix type="matrix" values="0 0 0 0 0.0235294 0 0 0 0 0.133333 0 0 0 0 0.517647 0 0 0 0.0413989 0"/>
<feBlend mode="normal" in2="effect1_dropShadow_1_11309" result="effect2_dropShadow_1_11309"/>
<feBlend mode="normal" in="SourceGraphic" in2="effect2_dropShadow_1_11309" result="shape"/>
</filter>
<clipPath id="clip0_1_11309">
<rect width="53" height="53" fill="white" transform="translate(28 21)"/>
</clipPath>
</defs>
</svg>
