<svg width="110" height="112" viewBox="0 0 110 112" fill="none" xmlns="http://www.w3.org/2000/svg">
<g filter="url(#filter0_dd_1_11270)">
<rect x="7" width="96" height="96" rx="10" fill="#F8FAFD"/>
</g>
<g clip-path="url(#clip0_1_11270)">
<path d="M53.6038 41.2094C53.9491 41.5374 54.5233 41.471 54.7857 41.0752L59.953 33.2767C60.1899 32.9193 60.0921 32.4373 59.7346 32.2003C59.3776 31.9638 58.8956 32.0616 58.6586 32.4187L54.002 39.4464L51.4146 36.9895C51.1036 36.6944 50.6123 36.7073 50.3167 37.0183C50.0215 37.3292 50.0345 37.8205 50.3454 38.1157C50.345 38.1157 53.6009 41.207 53.6038 41.2094Z" fill="#4582BA"/>
<path d="M54.1358 53.0502C54.2842 53.1182 54.4483 53.1542 54.6117 53.1542H54.6182C54.7844 53.1533 54.951 53.1153 55.0998 53.0442C66.9054 47.4297 68.9062 35.3159 69.2377 31.7369C69.3138 30.9197 68.8536 30.1587 68.093 29.8433C65.7429 28.8676 64.1453 26.6857 63.9237 24.1491C63.8553 23.3683 63.1881 22.7598 62.4021 22.7598H62.3928L46.4877 22.8532C45.6859 22.8576 45.0345 23.467 44.973 24.2704C44.7773 26.8078 43.2031 29.0055 40.8647 30.0059C40.1118 30.3277 39.663 31.0928 39.7487 31.9096C40.1223 35.4845 42.265 47.5744 54.1358 53.0502ZM41.4753 31.4332C44.3426 30.2072 46.2742 27.5154 46.5197 24.4055L62.379 24.3125C62.6609 27.4155 64.62 30.0827 67.4978 31.2772C67.6264 31.3309 67.7044 31.4579 67.6919 31.5938C67.3805 34.9479 65.5176 46.2574 54.6089 51.5573C43.6374 46.3864 41.6435 35.0988 41.2926 31.7482C41.2784 31.6128 41.352 31.4862 41.4753 31.4332Z" fill="#4582BA"/>
<path d="M43.415 35.7377C43.5088 36.0831 43.9467 36.3993 44.368 36.2832C44.7813 36.1692 45.0259 35.7442 44.9135 35.3306C44.7158 34.6019 44.5496 33.8631 44.419 33.1313C46.5281 31.7568 48.0934 29.7055 48.8612 27.3097L60.0733 27.2438C60.869 29.6299 62.4582 31.6634 64.5835 33.0128C64.4618 33.7467 64.3041 34.4879 64.1144 35.2194C64.0069 35.6346 64.2564 36.0584 64.6712 36.166C65.0869 36.2735 65.5103 36.024 65.6178 35.6088C65.8402 34.7499 66.0214 33.8781 66.1556 33.0176C66.2308 32.5369 66.0109 32.0642 65.596 31.8135C63.6163 30.6178 62.1529 28.742 61.4756 26.5317C61.3231 26.0348 60.8545 25.6895 60.3345 25.6895H60.3272L48.5887 25.7582C48.0655 25.7614 47.5972 26.1136 47.4504 26.6142C46.7994 28.8321 45.3579 30.7249 43.3923 31.9441C42.9803 32.1992 42.7664 32.6743 42.8468 33.1547C42.9916 34.0132 43.1824 34.8821 43.415 35.7377Z" fill="#4582BA"/>
<path d="M64.0478 38.0377C63.6515 37.8735 63.1979 38.0628 63.0341 38.459C61.24 42.8075 58.3997 46.1135 54.5899 48.2894C50.7505 46.1556 47.8691 42.8775 46.0244 38.5427C45.8562 38.1485 45.4 37.9649 45.0058 38.1327C44.6111 38.3005 44.4276 38.7566 44.5954 39.1509C46.6087 43.8811 49.7805 47.4471 54.0226 49.7491C54.2013 49.8466 54.397 49.8947 54.5923 49.8947C54.7925 49.8947 54.9922 49.8442 55.1742 49.7427C59.3844 47.3937 62.5117 43.7966 64.4696 39.051C64.6333 38.6547 64.4445 38.2011 64.0478 38.0377Z" fill="#4582BA"/>
<path d="M32.9812 62.4854C31.4669 62.4854 30.2344 63.7174 30.2344 65.2321C30.2344 66.7469 31.4669 67.9789 32.9812 67.9789C34.4959 67.9789 35.7284 66.7469 35.7284 65.2321C35.7284 63.7174 34.4963 62.4854 32.9812 62.4854ZM32.9812 66.4262C32.3229 66.4262 31.7871 65.8908 31.7871 65.2321C31.7871 64.5739 32.3229 64.0381 32.9812 64.0381C33.6399 64.0381 34.1756 64.5739 34.1756 65.2321C34.1756 65.8908 33.6399 66.4262 32.9812 66.4262Z" fill="#4582BA"/>
<path d="M80.4432 54.8862C79.4481 53.424 77.4445 53.0366 75.9771 54.0225L65.8277 60.8153L63.6612 60.6936L63.6058 60.1388C63.3898 57.9662 61.7291 56.2351 59.5674 55.9294C59.5537 55.9274 59.5403 55.9258 59.5266 55.9246L48.5903 54.9662C48.2203 54.9084 47.036 54.5684 43.7817 52.7018C42.0903 51.7318 40.1845 51.1843 38.2485 51.1099V49.0788C38.2485 48.0594 37.4195 47.2305 36.4001 47.2305H29.8483C28.8293 47.2305 28 48.0598 28 49.0788V69.0828C28 70.1018 28.8293 70.9311 29.8483 70.9311H36.4001C37.4191 70.9311 38.2485 70.1018 38.2485 69.0828V68.5316L47.8083 72.1519C47.8293 72.1599 48.6057 72.4503 50.0331 72.3156C50.0371 72.3152 65.9175 70.0257 65.9175 70.0257C65.9215 70.0253 65.9252 70.0245 65.9292 70.0237C67.2862 69.8074 68.566 69.2336 69.6307 68.3655C69.6404 68.3574 69.6497 68.3493 69.659 68.3412L79.918 59.1141C81.127 58.0406 81.353 56.223 80.4432 54.8862ZM78.8832 57.9565L68.6352 67.1738C67.7868 67.8616 66.7687 68.3165 65.6898 68.4896L49.8171 70.7779C49.8135 70.7783 49.8083 70.7791 49.8034 70.7799C49.801 70.7803 49.7981 70.7807 49.7957 70.7811C49.321 70.8559 48.8265 70.8244 48.3255 70.6873L38.2485 66.8713V58.005C38.2485 57.576 37.9007 57.2286 37.4721 57.2286C37.0431 57.2286 36.6957 57.576 36.6957 58.005V69.0828C36.6957 69.2457 36.5631 69.3784 36.4001 69.3784H29.8483C29.6854 69.3784 29.5527 69.2457 29.5527 69.0828V49.0788C29.5527 48.9158 29.6854 48.7832 29.8483 48.7832H36.4001C36.5631 48.7832 36.6957 48.9158 36.6957 49.0788V54.498C36.6957 54.927 37.0435 55.2744 37.4721 55.2744C37.9011 55.2744 38.2485 54.9266 38.2485 54.498V52.6642C39.914 52.7378 41.5525 53.2133 43.009 54.0492C46.9341 56.3002 48.0303 56.4555 48.3906 56.5064C48.4043 56.5085 48.4177 56.5097 48.4314 56.5113L59.3689 57.4696C60.8108 57.6827 61.9164 58.8408 62.0607 60.2924L62.102 60.7061L47.4589 61.6102C47.4488 61.6094 47.4387 61.6086 47.4298 61.6078C46.9551 61.565 46.5265 61.3405 46.222 60.9758C45.9474 60.6463 45.4578 60.6018 45.1286 60.8767C44.7991 61.1513 44.7546 61.641 45.0295 61.9701C45.5993 62.6535 46.4032 63.0623 47.2915 63.1545C47.7711 63.2046 62.956 62.2091 62.956 62.2091L66 62.3801C66.1682 62.3898 66.3352 62.3438 66.4751 62.2499L76.842 55.312C77.6034 54.8005 78.643 55.001 79.1594 55.7596C79.6313 56.4535 79.514 57.3964 78.8832 57.9565Z" fill="#4582BA"/>
</g>
<defs>
<filter id="filter0_dd_1_11270" x="0.0503192" y="0" width="109.899" height="111.637" filterUnits="userSpaceOnUse" color-interpolation-filters="sRGB">
<feFlood flood-opacity="0" result="BackgroundImageFix"/>
<feColorMatrix in="SourceAlpha" type="matrix" values="0 0 0 0 0 0 0 0 0 0 0 0 0 0 0 0 0 0 127 0" result="hardAlpha"/>
<feOffset dy="3.43489"/>
<feGaussianBlur stdDeviation="1.37396"/>
<feColorMatrix type="matrix" values="0 0 0 0 0.0235294 0 0 0 0 0.133333 0 0 0 0 0.517647 0 0 0 0.06 0"/>
<feBlend mode="normal" in2="BackgroundImageFix" result="effect1_dropShadow_1_11270"/>
<feColorMatrix in="SourceAlpha" type="matrix" values="0 0 0 0 0 0 0 0 0 0 0 0 0 0 0 0 0 0 127 0" result="hardAlpha"/>
<feOffset dy="8.6871"/>
<feGaussianBlur stdDeviation="3.47484"/>
<feColorMatrix type="matrix" values="0 0 0 0 0.0235294 0 0 0 0 0.133333 0 0 0 0 0.517647 0 0 0 0.0413989 0"/>
<feBlend mode="normal" in2="effect1_dropShadow_1_11270" result="effect2_dropShadow_1_11270"/>
<feBlend mode="normal" in="SourceGraphic" in2="effect2_dropShadow_1_11270" result="shape"/>
</filter>
<clipPath id="clip0_1_11270">
<rect width="53" height="53" fill="white" transform="translate(28 21)"/>
</clipPath>
</defs>
</svg>
